<svg width="148" height="235" viewBox="0 0 148 235" fill="none" xmlns="http://www.w3.org/2000/svg">
    <g clip-path="url(#clip0)">
        <circle cx="65.4917" cy="112.795" r="21.8306" fill="white"/>
        <path d="M25.8481 86.2461C25.8481 56.5649 49.9095 32.5037 79.5907 32.5037C109.272 32.5037 133.333 56.565 133.333 86.2462V236.591H25.8481V86.2461Z" fill="white" stroke="#0B0B0B" stroke-width="1.92478"/>
        <circle cx="24.7838" cy="112.923" r="19.3907" fill="white"/>
        <path d="M73.588 12.5919L78.7713 5.44257L81.3091 14.664C81.6006 15.723 82.9886 15.9729 83.631 15.0819L88.6393 8.13646L90.5472 16.8819L91.4875 16.6767L90.5472 16.8819C90.7768 17.9341 92.1086 18.2735 92.8137 17.4594L92.0863 16.8293L92.8137 17.4594L98.9211 10.4078L101.282 19.5199C101.558 20.583 102.942 20.8538 103.597 19.9728L108.85 12.9175L110.746 21.7571C110.979 22.8451 112.378 23.1632 113.059 22.2831L118.711 14.9779L120.215 23.987C120.401 25.1006 121.816 25.4712 122.524 24.5919L126.993 19.0422L119.579 49.9118C117.13 50.1355 107.525 50.5859 90.1932 46.3563C72.7836 42.1077 63.8395 37.1055 61.6193 35.7495L69.4861 4.2232L71.2528 12.1101C71.499 13.2092 72.9268 13.5038 73.588 12.5919ZM122.114 23.67L122.114 23.6692C122.114 23.6694 122.114 23.6697 122.114 23.67L122.018 23.686L122.114 23.67ZM83.1649 14.1533L83.1016 14.1707L83.1649 14.1533L83.1646 14.1523C83.1647 14.1526 83.1648 14.153 83.1649 14.1533Z" fill="#00B15C" stroke="#0B0B0B" stroke-width="1.92478"/>
        <path fill-rule="evenodd" clip-rule="evenodd" d="M42.3863 112.923C42.3863 122.663 34.3953 130.597 24.4913 130.597C14.5873 130.597 6.59624 122.663 6.59624 112.923C6.59624 103.182 14.5873 95.2486 24.4913 95.2486C34.3953 95.2486 42.3863 103.182 42.3863 112.923ZM43.6973 117.972C41.4437 126.376 33.699 132.57 24.4913 132.57C13.5184 132.57 4.62305 123.774 4.62305 112.923C4.62305 102.072 13.5184 93.2754 24.4913 93.2754C33.699 93.2754 41.4438 99.4694 43.6973 107.874C45.9508 99.4694 53.6956 93.2754 62.9033 93.2754C73.8762 93.2754 82.7715 102.072 82.7715 112.923C82.7715 123.774 73.8762 132.57 62.9033 132.57C53.6956 132.57 45.9508 126.376 43.6973 117.972ZM80.7983 112.923C80.7983 122.663 72.8073 130.597 62.9033 130.597C52.9993 130.597 45.0082 122.663 45.0082 112.923C45.0082 103.182 52.9993 95.2486 62.9033 95.2486C72.8073 95.2486 80.7983 103.182 80.7983 112.923ZM72.0577 121.202C71.9262 121.209 71.7939 121.212 71.6609 121.212C67.0409 121.212 63.2957 117.466 63.2957 112.846C63.2957 108.226 67.0409 104.481 71.6609 104.481C71.7393 104.481 71.8175 104.482 71.8954 104.484C69.5855 101.934 66.2477 100.332 62.5357 100.332C55.5778 100.332 49.9346 105.961 49.9114 112.913H49.9113L49.9113 112.935L49.9113 112.956H49.9114C49.9346 119.909 55.5778 125.538 62.5357 125.538C66.3356 125.538 69.7433 123.859 72.0577 121.202ZM33.8504 121.212C33.9835 121.212 34.1159 121.209 34.2474 121.202C31.933 123.859 28.5253 125.538 24.7254 125.538C17.7675 125.538 12.1244 119.909 12.1011 112.956H12.101L12.101 112.935L12.101 112.913H12.1011C12.1244 105.961 17.7675 100.332 24.7254 100.332C28.4374 100.332 31.7752 101.934 34.0852 104.484C34.0072 104.482 33.9289 104.481 33.8504 104.481C29.2304 104.481 25.4852 108.226 25.4852 112.846C25.4852 117.466 29.2304 121.212 33.8504 121.212Z" fill="#0B0B0B"/>
        <path d="M0.864648 86.5714C0.864648 83.0665 3.70593 80.2252 7.21082 80.2252H24.8052C32.0021 80.2252 37.8892 85.8332 38.3351 92.9176H7.21081C3.70592 92.9176 0.864648 90.0763 0.864648 86.5714Z" fill="#0B0B0B" stroke="#0B0B0B" stroke-width="1.7293"/>
        <path d="M91.6549 60.2463C91.6549 56.7415 88.8136 53.9002 85.3087 53.9002H67.7143C60.5174 53.9002 54.6303 59.5081 54.1844 66.5925H85.3087C88.8136 66.5925 91.6549 63.7512 91.6549 60.2463Z" fill="#0B0B0B" stroke="#0B0B0B" stroke-width="1.7293"/>
        <path d="M65.4126 210.486C65.4126 210.486 68.5854 214.813 78.3921 214.813C88.1988 214.813 91.3716 210.486 91.3716 210.486" stroke="#0B0B0B" stroke-width="1.7293" stroke-linecap="round"/>
        <path d="M65.4126 217.253C65.4126 217.253 68.5854 221.579 78.3921 221.579C88.1988 221.579 91.3716 217.253 91.3716 217.253" stroke="#0B0B0B" stroke-width="1.7293" stroke-linecap="round"/>
        <path d="M104.273 119.812L111.699 105.578C111.818 105.35 112.143 105.347 112.266 105.573L119.697 119.247C119.823 119.479 120.161 119.468 120.271 119.227L126.454 105.683C126.568 105.433 126.923 105.433 127.037 105.683L133.196 119.172C133.31 119.422 133.665 119.422 133.779 119.172L139.951 105.654C140.063 105.409 140.409 105.403 140.529 105.644L147.934 120.454" stroke="black" stroke-width="1.92478"/>
        <path d="M6.64297 137.148C6.64297 126.632 15.1673 118.108 25.6827 118.108H44.0803V156.187H25.6827C15.1673 156.187 6.64297 147.663 6.64297 137.148Z" fill="white" stroke="#0B0B0B" stroke-width="1.7293"/>
        <path d="M52.3172 156.09H35.0056C35.1309 151.458 36.154 147.328 37.706 144.328C39.3899 141.072 41.5457 139.394 43.6614 139.394C45.7772 139.394 47.9329 141.072 49.6169 144.328C51.1689 147.328 52.192 151.458 52.3172 156.09Z" fill="white" stroke="black" stroke-width="1.92478"/>
        <path d="M7.18814 182.636C7.76669 175.706 13.5775 170.266 20.6551 170.273L51.12 170.301C58.1976 170.307 63.9984 175.758 64.5641 182.689L7.18814 182.636Z" fill="#0B0B0B" stroke="#0B0B0B" stroke-width="2.252"/>
    </g>
    <defs>
        <clipPath id="clip0">
            <rect width="148" height="235" fill="white"/>
        </clipPath>
    </defs>
</svg>
