<svg width="120" height="170" viewBox="0 0 120 170" fill="none" xmlns="http://www.w3.org/2000/svg">
    <g clip-path="url(#clip0)">
        <path d="M106.349 95.8369C106.349 70.2433 85.6009 49.4956 60.0073 49.4956C34.4137 49.4956 13.6659 70.2433 13.6659 95.8369V171.37H106.349V95.8369Z" fill="white" stroke="#0B0B0B" stroke-width="1.76954"/>
        <ellipse cx="101.329" cy="102.652" rx="14.1312" ry="14.1563" fill="white"/>
        <path d="M85.3648 102.888C85.3648 110.991 78.7315 117.574 70.5315 117.574C62.3315 117.574 55.6982 110.991 55.6982 102.888C55.6982 94.7845 62.3315 88.2014 70.5315 88.2014C78.7315 88.2014 85.3648 94.7845 85.3648 102.888Z" stroke="#0B0B0B" stroke-width="1.76954"/>
        <path d="M115.752 102.888C115.752 110.991 109.119 117.574 100.919 117.574C92.7192 117.574 86.0859 110.991 86.0859 102.888C86.0859 94.7845 92.7192 88.2014 100.919 88.2014C109.119 88.2014 115.752 94.7845 115.752 102.888Z" stroke="#0B0B0B" stroke-width="1.76954"/>
        <mask id="path-5-inside-1" fill="white">
            <path fill-rule="evenodd" clip-rule="evenodd" d="M73.6378 95.929C73.112 92.0923 69.8266 89.1368 65.8522 89.1368C61.8778 89.1368 58.5924 92.0923 58.0666 95.929H56.6304V97.3287H83.8879V95.929H73.6378Z"/>
        </mask>
        <path fill-rule="evenodd" clip-rule="evenodd" d="M73.6378 95.929C73.112 92.0923 69.8266 89.1368 65.8522 89.1368C61.8778 89.1368 58.5924 92.0923 58.0666 95.929H56.6304V97.3287H83.8879V95.929H73.6378Z" fill="#0B0B0B"/>
        <path d="M73.6378 95.929L73.2911 95.9765L73.3325 96.2789H73.6378V95.929ZM58.0666 95.929V96.2789H58.3718L58.4133 95.9765L58.0666 95.929ZM56.6304 95.929V95.5791H56.2805V95.929H56.6304ZM56.6304 97.3287H56.2805V97.6786H56.6304V97.3287ZM83.8879 97.3287V97.6786H84.2378V97.3287H83.8879ZM83.8879 95.929H84.2378V95.5791H83.8879V95.929ZM65.8522 89.4867C69.6489 89.4867 72.7887 92.3102 73.2911 95.9765L73.9844 95.8815C73.4353 91.8744 70.0044 88.7869 65.8522 88.7869V89.4867ZM58.4133 95.9765C58.9157 92.3102 62.0555 89.4867 65.8522 89.4867V88.7869C61.7 88.7869 58.2691 91.8744 57.7199 95.8815L58.4133 95.9765ZM56.6304 96.2789H58.0666V95.5791H56.6304V96.2789ZM56.9803 97.3287V95.929H56.2805V97.3287H56.9803ZM83.8879 96.9788H56.6304V97.6786H83.8879V96.9788ZM83.538 95.929V97.3287H84.2378V95.929H83.538ZM73.6378 96.2789H83.8879V95.5791H73.6378V96.2789Z" fill="#0B0B0B" mask="url(#path-5-inside-1)"/>
        <line x1="87.0679" y1="96.6289" x2="114.325" y2="96.6289" stroke="#0B0B0B" stroke-width="1.39963"/>
        <path d="M96.2897 89.312C100.475 89.312 103.879 92.6641 103.972 96.8351H88.6076C88.7004 92.6641 92.1045 89.312 96.2897 89.312Z" fill="#0B0B0B" stroke="#0B0B0B" stroke-width="0.349908"/>
        <path d="M107.122 116.502C107.122 111.415 102.999 107.292 97.9123 107.292H85.7421V125.711H97.9123C102.999 125.711 107.122 121.588 107.122 116.502Z" fill="white" stroke="#0B0B0B" stroke-width="1.76954"/>
        <path d="M45.6647 84.17C45.4636 83.3441 45.97 82.511 46.7957 82.3092L73.3503 75.8186C75.1561 75.3772 76.9747 76.2942 77.7314 77.9165L47.5239 85.3C46.6982 85.5018 45.8658 84.9959 45.6647 84.17Z" fill="#0B0B0B" stroke="#0B0B0B" stroke-width="1.51389"/>
        <path d="M118.366 74.8654C118.396 74.0158 117.731 73.3028 116.882 73.2728L89.5663 72.3091C87.7083 72.2435 86.1126 73.5109 85.6996 75.2532L116.774 76.3495C117.623 76.3795 118.336 75.715 118.366 74.8654Z" fill="#0B0B0B" stroke="#0B0B0B" stroke-width="1.51389"/>
        <path d="M38.2107 68.3721H100.435C106.597 68.3721 110.667 62.0673 107.164 56.9981C100.088 46.76 88.1717 36.003 69.8359 36.0031C35.757 36.0032 24.8517 35.4973 15.0369 47.3828C6.00963 58.3148 -1.21484 111.254 2.01701 134.533C2.1387 135.41 2.65927 136.155 3.41663 136.613L26.7262 150.699C31.771 153.748 38.2107 150.115 38.2107 144.221V68.3721Z" fill="#0B0B0B" stroke="#0B0B0B" stroke-width="0.504629"/>
        <ellipse rx="0.754874" ry="0.252315" transform="matrix(-1 0 0 1 71.939 53.4132)" fill="#0B0B0B"/>
        <ellipse rx="0.754874" ry="0.252315" transform="matrix(-1 0 0 1 67.4097 54.4226)" fill="#0B0B0B"/>
        <ellipse rx="0.754874" ry="0.252315" transform="matrix(-1 0 0 1 69.9258 51.3942)" fill="#0B0B0B"/>
        <ellipse rx="0.754876" ry="0.252315" transform="matrix(-1 0 0 1 71.436 56.4416)" fill="#0B0B0B"/>
        <ellipse rx="0.754874" ry="0.252315" transform="matrix(-1 0 0 1 60.8672 51.899)" fill="#0B0B0B"/>
        <ellipse rx="0.754874" ry="0.252315" transform="matrix(-1 0 0 1 63.8867 50.3849)" fill="#0B0B0B"/>
        <ellipse rx="0.754874" ry="0.252315" transform="matrix(-1 0 0 1 58.3511 55.9368)" fill="#0B0B0B"/>
        <ellipse rx="0.754876" ry="0.252315" transform="matrix(-1 0 0 1 53.3184 55.4322)" fill="#0B0B0B"/>
        <ellipse rx="0.754876" ry="0.252315" transform="matrix(-1 0 0 1 53.8218 52.4039)" fill="#0B0B0B"/>
        <ellipse rx="0.754876" ry="0.252315" transform="matrix(-1 0 0 1 50.2993 51.3942)" fill="#0B0B0B"/>
        <ellipse rx="0.754874" ry="0.252315" transform="matrix(-1 0 0 1 57.8482 50.8894)" fill="#0B0B0B"/>
        <ellipse rx="0.754876" ry="0.252315" transform="matrix(-1 0 0 1 49.7959 53.9181)" fill="#0B0B0B"/>
        <ellipse rx="0.754876" ry="0.252315" transform="matrix(-1 0 0 1 49.7959 56.4416)" fill="#0B0B0B"/>
        <ellipse rx="0.754876" ry="0.252315" transform="matrix(-1 0 0 1 44.2607 58.4606)" fill="#0B0B0B"/>
        <ellipse rx="0.754876" ry="0.252315" transform="matrix(-1 0 0 1 41.2407 56.4416)" fill="#0B0B0B"/>
        <ellipse rx="0.754876" ry="0.252315" transform="matrix(-1 0 0 1 41.7441 54.4226)" fill="#0B0B0B"/>
        <ellipse rx="0.75488" ry="0.252315" transform="matrix(-1 0 0 1 39.2275 58.9653)" fill="#0B0B0B"/>
        <ellipse rx="0.754876" ry="0.252315" transform="matrix(-1 0 0 1 36.7114 56.9464)" fill="#0B0B0B"/>
        <ellipse rx="0.754876" ry="0.252315" transform="matrix(-1 0 0 1 45.77 55.4322)" fill="#0B0B0B"/>
        <ellipse rx="0.754876" ry="0.252315" transform="matrix(-1 0 0 1 46.273 52.9083)" fill="#0B0B0B"/>
        <ellipse rx="0.754872" ry="0.252315" transform="matrix(-1 0 0 1 57.3447 53.4132)" fill="#0B0B0B"/>
        <ellipse rx="0.754874" ry="0.252315" transform="matrix(-1 0 0 1 61.8735 54.9274)" fill="#0B0B0B"/>
        <ellipse rx="0.754876" ry="0.252315" transform="matrix(-1 0 0 1 64.8931 56.4416)" fill="#0B0B0B"/>
        <ellipse rx="0.754872" ry="0.252315" transform="matrix(-1 0 0 1 65.8994 52.4039)" fill="#0B0B0B"/>
        <ellipse rx="0.754874" ry="0.252315" transform="matrix(-1 0 0 1 76.9712 55.9368)" fill="#0B0B0B"/>
        <path d="M1.10934 2.15923L10.9166 58.5408C10.9554 58.7639 11.0632 58.969 11.2576 59.0854C16.8591 62.4394 44.5146 47.6563 46.3995 38.4833C46.4636 38.1712 46.3303 37.8649 46.0861 37.6602L2.67074 1.25975C1.98544 0.685175 0.956079 1.27817 1.10934 2.15923Z" fill="#00B15C" stroke="#0B0B0B" stroke-width="1.43891"/>
        <path d="M11.5968 58.2303C28.5565 53.3312 34.283 47.4623 41.5043 35.3267C41.6323 35.1116 41.3848 34.8682 41.1714 34.9991C30.1705 41.7419 23.1037 44.412 10.0022 46.3621C9.76653 46.3972 9.62653 46.1051 9.80515 45.9474L31.3948 26.8892C31.6138 26.6959 31.354 26.3422 31.1016 26.4894C23.3739 30.9962 17.036 33.7298 7.83921 34.4201C7.58594 34.4391 7.48674 34.1036 7.70703 33.9772C15.8107 29.3271 19.56 26.0364 23.2283 19.5112C23.3401 19.3122 23.1346 19.0868 22.9247 19.1765C17.7238 21.3972 13.9219 22.5147 6.15832 23.8069C5.92391 23.846 5.78338 23.5559 5.95747 23.3941C9.61678 19.9944 12.1498 17.455 15.2968 13.2492C15.4487 13.0462 15.2203 12.7782 14.9938 12.8921C11.1288 14.8359 8.2845 15.759 4.32157 15.7854C4.10193 15.7869 3.99675 15.5153 4.15703 15.3651C7.28465 12.4345 11.8315 6.36057 9.20284 7.62847C6.2448 9.05527 3.22195 8.75379 2.021 7.62847" stroke="white" stroke-width="1.43891"/>
        <path fill-rule="evenodd" clip-rule="evenodd" d="M2.20836 1.81118C2.03703 1.66753 1.77969 1.81578 1.81801 2.03604L11.6252 58.4176C11.6306 58.4482 11.6379 58.4675 11.6426 58.4774C12.1516 58.7748 13.0082 58.9185 14.2424 58.8222C15.4661 58.7267 16.9574 58.404 18.6333 57.8842C21.9821 56.8455 25.9756 55.0491 29.8689 52.8553C33.7618 50.6618 37.5252 48.0874 40.4224 45.5068C41.871 44.2165 43.0906 42.9356 44.0004 41.7109C44.9144 40.4803 45.4882 39.3433 45.6946 38.3386C45.6967 38.3283 45.697 38.3158 45.6892 38.2962C45.6805 38.2742 45.6609 38.2428 45.6238 38.2116L2.20836 1.81118ZM0.400379 2.28263C0.132179 0.740755 1.93356 -0.296959 3.13283 0.708537L46.5482 37.109C46.9583 37.4528 47.2304 38.0135 47.1041 38.6282C46.8393 39.9168 46.1364 41.2483 45.1555 42.5689C44.1702 43.8953 42.8762 45.2481 41.3795 46.5812C38.3861 49.2475 34.5322 51.8793 30.5753 54.1089C26.619 56.3382 22.5305 58.182 19.0596 59.2585C17.3256 59.7963 15.7226 60.1499 14.3544 60.2567C13.0093 60.3617 11.7812 60.2376 10.8878 59.7027C10.4615 59.4475 10.2703 59.0245 10.2076 58.6642L0.400379 2.28263Z" fill="#0B0B0B"/>
        <path d="M75.3891 150.322L67.2091 151.74C65.0905 152.108 62.9247 152.108 60.806 151.74L52.6261 150.322C48.3403 149.579 45.2095 145.85 45.2095 141.488C45.2095 134.793 52.3877 130.473 58.3623 133.58C61.8823 135.411 66.1329 135.411 69.6529 133.58C75.6275 130.473 82.8057 134.793 82.8057 141.488C82.8057 145.85 79.6749 149.579 75.3891 150.322ZM59.1253 132.105C52.0726 128.437 43.5522 133.518 43.5522 141.488C43.5522 146.659 47.2631 151.079 52.3438 151.96L60.5237 153.378C62.8292 153.777 65.186 153.777 67.4915 153.378L75.6714 151.96C80.752 151.079 84.4629 146.659 84.4629 141.488C84.4629 133.518 75.9425 128.437 68.8899 132.105C65.8483 133.687 62.1669 133.687 59.1253 132.105Z" fill="#0B0B0B" stroke="black" stroke-width="0.147461"/>
        <path d="M53.4395 140.532C53.4395 140.532 57.7171 143.56 64.5109 143.56C71.3048 143.56 75.5824 140.532 75.5824 140.532" stroke="#0B0B0B" stroke-width="1.76954" stroke-linecap="round"/>
    </g>
    <defs>
        <clipPath id="clip0">
            <rect width="119.203" height="170" fill="white"/>
        </clipPath>
    </defs>
</svg>
