<svg width="124" height="196" viewBox="0 0 124 196" fill="none" xmlns="http://www.w3.org/2000/svg">
    <g clip-path="url(#clip0)">
        <circle cx="54.6227" cy="94.0754" r="18.2076" fill="white"/>
        <path d="M21.559 71.933C21.559 47.1776 41.6272 27.1094 66.3826 27.1094C91.1379 27.1094 111.206 47.1776 111.206 71.933V197.327H21.559V71.933Z" fill="white" stroke="#0B0B0B" stroke-width="1.60535"/>
        <circle cx="20.6712" cy="94.1826" r="16.1727" fill="white"/>
        <path d="M75.2252 38.6631C60.7049 35.1196 53.245 30.9476 51.3933 29.8166L57.9546 3.52233L59.428 10.1003C59.6334 11.017 60.8243 11.2627 61.3757 10.5022L65.6988 4.53933L67.8155 12.2304C68.0585 13.1137 69.2162 13.322 69.7521 12.579L73.9292 6.78615L75.5204 14.0802C75.7119 14.9578 76.8227 15.2409 77.4108 14.5619L82.5047 8.68055L84.4739 16.2804C84.7036 17.1671 85.8579 17.3929 86.4049 16.6582L90.7855 10.7738L92.3672 18.1463L93.152 17.978L92.3672 18.1463C92.5618 19.0538 93.7286 19.3191 94.2965 18.585L99.0103 12.4922L100.265 20.0062L101.057 19.874L100.265 20.0062C100.42 20.9349 101.6 21.2441 102.191 20.5107L105.918 15.882L99.7342 41.6286C97.6917 41.8151 89.6808 42.1908 75.2252 38.6631ZM69.3633 11.8044L69.363 11.8035L69.3633 11.8044ZM86.0279 15.8777L86.0276 15.8766L86.0279 15.8777Z" fill="#00B15C" stroke="#0B0B0B" stroke-width="1.60535"/>
        <path fill-rule="evenodd" clip-rule="evenodd" d="M35.3521 94.1825C35.3521 102.306 28.6873 108.924 20.4269 108.924C12.1665 108.924 5.50169 102.306 5.50169 94.1825C5.50169 86.0585 12.1665 79.4414 20.4269 79.4414C28.6873 79.4414 35.3521 86.0585 35.3521 94.1825ZM36.4455 98.394C34.5659 105.403 28.1064 110.569 20.4269 110.569C11.275 110.569 3.85596 103.233 3.85596 94.1825C3.85596 85.1323 11.275 77.7957 20.4269 77.7957C28.1064 77.7957 34.5659 82.9616 36.4455 89.971C38.3251 82.9616 44.7845 77.7957 52.464 77.7957C61.6159 77.7957 69.035 85.1323 69.035 94.1825C69.035 103.233 61.6159 110.569 52.464 110.569C44.7845 110.569 38.3251 105.403 36.4455 98.394ZM67.3892 94.1825C67.3892 102.306 60.7244 108.924 52.464 108.924C44.2037 108.924 37.5388 102.306 37.5388 94.1825C37.5388 86.0585 44.2037 79.4414 52.464 79.4414C60.7244 79.4414 67.3892 86.0585 67.3892 94.1825ZM60.0991 101.088C59.9895 101.093 59.8792 101.096 59.7683 101.096C55.9151 101.096 52.7914 97.972 52.7914 94.1187C52.7914 90.2655 55.9151 87.1418 59.7683 87.1418C59.8337 87.1418 59.8988 87.1427 59.9638 87.1445C58.0372 85.0173 55.2534 83.6812 52.1574 83.6812C46.3543 83.6812 41.6476 88.3758 41.6282 94.1744H41.6281L41.6281 94.1924L41.6281 94.2104H41.6282C41.6476 100.009 46.3543 104.704 52.1574 104.704C55.3266 104.704 58.1688 103.303 60.0991 101.088ZM28.2328 101.096C28.3438 101.096 28.4541 101.093 28.5638 101.088C26.6335 103.303 23.7913 104.704 20.6221 104.704C14.8189 104.704 10.1123 100.009 10.0928 94.2104H10.0928L10.0928 94.1924L10.0928 94.1744H10.0928C10.1123 88.3758 14.8189 83.6812 20.6221 83.6812C23.718 83.6812 26.5019 85.0173 28.4284 87.1445C28.3635 87.1427 28.2983 87.1418 28.2328 87.1418C24.3796 87.1418 21.2559 90.2655 21.2559 94.1187C21.2559 97.972 24.3796 101.096 28.2328 101.096Z" fill="#0B0B0B"/>
        <path d="M0.721153 72.2043C0.721153 69.2811 3.0909 66.9113 6.01413 66.9113H20.6886C26.6911 66.9113 31.6012 71.5886 31.9731 77.4973H6.01413C3.0909 77.4973 0.721153 75.1275 0.721153 72.2043Z" fill="#0B0B0B" stroke="#0B0B0B" stroke-width="1.44231"/>
        <path d="M76.4439 50.248C76.4439 47.3248 74.0741 44.955 71.1509 44.955H56.4764C50.4739 44.955 45.5638 49.6323 45.1919 55.541H71.1509C74.0741 55.541 76.4439 53.1713 76.4439 50.248Z" fill="#0B0B0B" stroke="#0B0B0B" stroke-width="1.44231"/>
        <path d="M54.5571 175.554C54.5571 175.554 57.2033 179.163 65.3826 179.163C73.5618 179.163 76.208 175.554 76.208 175.554" stroke="#0B0B0B" stroke-width="1.44231" stroke-linecap="round"/>
        <path d="M54.5571 181.198C54.5571 181.198 57.2033 184.806 65.3826 184.806C73.5618 184.806 76.208 181.198 76.208 181.198" stroke="#0B0B0B" stroke-width="1.44231" stroke-linecap="round"/>
        <path d="M86.9683 99.928L93.1621 88.0565C93.2612 87.8666 93.5321 87.8643 93.6344 88.0525L99.8326 99.4571C99.9379 99.651 100.219 99.6412 100.311 99.4405L105.468 88.1442C105.563 87.9356 105.86 87.9356 105.955 88.1442L111.091 99.3949C111.186 99.6035 111.483 99.6035 111.578 99.3949L116.725 88.1202C116.818 87.9156 117.107 87.9105 117.208 88.1117L123.384 100.464" stroke="black" stroke-width="1.60535"/>
        <path d="M5.54098 114.387C5.54098 105.617 12.6507 98.507 21.4209 98.507H36.7653V130.267H21.4209C12.6507 130.267 5.54098 123.157 5.54098 114.387Z" fill="white" stroke="#0B0B0B" stroke-width="1.44231"/>
        <path d="M43.6344 130.185H29.1958C29.3003 126.323 30.1536 122.878 31.448 120.375C32.8525 117.66 34.6505 116.261 36.4151 116.261C38.1798 116.261 39.9777 117.66 41.3822 120.375C42.6766 122.878 43.5299 126.323 43.6344 130.185Z" fill="white" stroke="black" stroke-width="1.60535"/>
        <path d="M5.99517 152.326C6.4777 146.547 11.3241 142.009 17.2272 142.015L42.6362 142.038C48.5393 142.044 53.3773 146.59 53.8492 152.37L5.99517 152.326Z" fill="#0B0B0B" stroke="#0B0B0B" stroke-width="1.87826"/>
    </g>
    <defs>
        <clipPath id="clip0">
            <rect width="124" height="196" fill="white"/>
        </clipPath>
    </defs>
</svg>
