<svg width="164" height="235" viewBox="0 0 164 235" fill="none" xmlns="http://www.w3.org/2000/svg">
    <g clip-path="url(#clip0)">
        <path d="M19.3436 59.965C19.3436 27.5425 45.6273 1.2589 78.0498 1.2589C110.472 1.2589 136.756 27.5425 136.756 59.9651V236.867H19.3436V59.965Z" fill="white" stroke="#0B0B0B" stroke-width="2.51786"/>
        <ellipse cx="25.7917" cy="69.5342" rx="20.9999" ry="20.3781" fill="white"/>
        <ellipse cx="68.4277" cy="69.5351" rx="20.9999" ry="20.3781" fill="white"/>
        <mask id="path-4-outside-1" maskUnits="userSpaceOnUse" x="3.7937" y="46.8834" width="88" height="45" fill="black">
            <rect fill="white" x="3.7937" y="46.8834" width="88" height="45"/>
            <path fill-rule="evenodd" clip-rule="evenodd" d="M70.1399 89.4595C80.867 89.0625 89.4074 80.3366 89.4074 69.6717C89.4074 66.4222 88.6146 63.3527 87.2086 60.644L86.6724 63.9966C85.9745 68.3594 83.2371 72.1264 79.3042 74.1362L78.1764 74.7125C74.086 76.8027 71.2993 80.7871 70.738 85.348L70.2727 89.1291C70.2574 89.2532 70.2101 89.3658 70.1399 89.4595ZM56.7186 85.0201C52.2158 81.3857 49.3454 75.8545 49.3454 69.6717C49.3454 58.7549 58.2939 49.8698 69.3764 49.8698C71.1699 49.8698 72.9075 50.1025 74.5603 50.5388C74.5501 50.572 74.5421 50.6066 74.5367 50.6424L73.3493 58.5199C72.6842 62.9324 69.9341 66.753 65.962 68.7828L64.8261 69.3632C60.7789 71.4314 58.0052 75.3557 57.4052 79.8626L56.7186 85.0201ZM69.3764 91.46C81.5363 91.46 91.3938 81.705 91.3938 69.6717C91.3938 57.6383 81.5363 47.8834 69.3764 47.8834C59.1737 47.8834 50.5919 54.7508 48.0936 64.0695C45.5949 54.7514 37.0134 47.8846 26.8111 47.8846C14.6512 47.8846 4.7937 57.6395 4.7937 69.6729C4.7937 81.7062 14.6512 91.4612 26.8111 91.4612C37.0138 91.4612 45.5957 84.5937 48.0939 75.275C50.5926 84.5931 59.1741 91.46 69.3764 91.46ZM28.6865 89.3892C38.8859 88.4539 46.8421 79.9666 46.8421 69.6729C46.8421 67.0642 46.3312 64.5716 45.4022 62.2885L45.082 64.2904C44.3842 68.6532 41.6468 72.4202 37.7138 74.43L36.5861 75.0063C32.4956 77.0965 29.709 81.0809 29.1477 85.6418L28.6865 89.3892ZM15.0787 85.725C10.0475 82.1241 6.7801 76.2694 6.7801 69.6729C6.7801 58.7561 15.7286 49.871 26.8111 49.871C28.9619 49.871 31.0323 50.2056 32.9725 50.8248C32.961 50.8604 32.9522 50.8976 32.9464 50.9362L31.759 58.8138C31.0939 63.2262 28.3437 67.0468 24.3716 69.0766L23.2358 69.6571C19.1886 71.7252 16.4149 75.6495 15.8148 80.1564L15.0847 85.6404C15.081 85.6687 15.079 85.6969 15.0787 85.725Z"/>
        </mask>
        <path fill-rule="evenodd" clip-rule="evenodd" d="M70.1399 89.4595C80.867 89.0625 89.4074 80.3366 89.4074 69.6717C89.4074 66.4222 88.6146 63.3527 87.2086 60.644L86.6724 63.9966C85.9745 68.3594 83.2371 72.1264 79.3042 74.1362L78.1764 74.7125C74.086 76.8027 71.2993 80.7871 70.738 85.348L70.2727 89.1291C70.2574 89.2532 70.2101 89.3658 70.1399 89.4595ZM56.7186 85.0201C52.2158 81.3857 49.3454 75.8545 49.3454 69.6717C49.3454 58.7549 58.2939 49.8698 69.3764 49.8698C71.1699 49.8698 72.9075 50.1025 74.5603 50.5388C74.5501 50.572 74.5421 50.6066 74.5367 50.6424L73.3493 58.5199C72.6842 62.9324 69.9341 66.753 65.962 68.7828L64.8261 69.3632C60.7789 71.4314 58.0052 75.3557 57.4052 79.8626L56.7186 85.0201ZM69.3764 91.46C81.5363 91.46 91.3938 81.705 91.3938 69.6717C91.3938 57.6383 81.5363 47.8834 69.3764 47.8834C59.1737 47.8834 50.5919 54.7508 48.0936 64.0695C45.5949 54.7514 37.0134 47.8846 26.8111 47.8846C14.6512 47.8846 4.7937 57.6395 4.7937 69.6729C4.7937 81.7062 14.6512 91.4612 26.8111 91.4612C37.0138 91.4612 45.5957 84.5937 48.0939 75.275C50.5926 84.5931 59.1741 91.46 69.3764 91.46ZM28.6865 89.3892C38.8859 88.4539 46.8421 79.9666 46.8421 69.6729C46.8421 67.0642 46.3312 64.5716 45.4022 62.2885L45.082 64.2904C44.3842 68.6532 41.6468 72.4202 37.7138 74.43L36.5861 75.0063C32.4956 77.0965 29.709 81.0809 29.1477 85.6418L28.6865 89.3892ZM15.0787 85.725C10.0475 82.1241 6.7801 76.2694 6.7801 69.6729C6.7801 58.7561 15.7286 49.871 26.8111 49.871C28.9619 49.871 31.0323 50.2056 32.9725 50.8248C32.961 50.8604 32.9522 50.8976 32.9464 50.9362L31.759 58.8138C31.0939 63.2262 28.3437 67.0468 24.3716 69.0766L23.2358 69.6571C19.1886 71.7252 16.4149 75.6495 15.8148 80.1564L15.0847 85.6404C15.081 85.6687 15.079 85.6969 15.0787 85.725Z" fill="#0B0B0B"/>
        <path d="M70.1399 89.4595L69.972 89.3336L69.7082 89.6854L70.1477 89.6691L70.1399 89.4595ZM87.2086 60.644L87.3949 60.5474L87.1019 59.9829L87.0014 60.6109L87.2086 60.644ZM86.6724 63.9966L86.4652 63.9634L86.6724 63.9966ZM79.3042 74.1362L79.3996 74.323L79.3042 74.1362ZM78.1764 74.7125L78.2719 74.8993L78.1764 74.7125ZM70.738 85.348L70.5298 85.3223L70.738 85.348ZM70.2727 89.1291L70.481 89.1547V89.1547L70.2727 89.1291ZM56.7186 85.0201L56.5868 85.1833L56.8773 85.4178L56.9265 85.0478L56.7186 85.0201ZM74.5603 50.5388L74.7608 50.6007L74.8254 50.3918L74.6139 50.3359L74.5603 50.5388ZM74.5367 50.6424L74.3292 50.6112L74.3292 50.6112L74.5367 50.6424ZM73.3493 58.5199L73.1418 58.4887L73.3493 58.5199ZM65.962 68.7828L66.0574 68.9697L65.962 68.7828ZM64.8261 69.3632L64.7306 69.1764L64.8261 69.3632ZM57.4052 79.8626L57.6132 79.8903L57.4052 79.8626ZM48.0936 64.0695L47.8909 64.1238L48.0936 64.8797L48.2963 64.1238L48.0936 64.0695ZM48.0939 75.275L48.2966 75.2207L48.0939 74.4648L47.8913 75.2207L48.0939 75.275ZM28.6865 89.3892L28.4783 89.3636L28.4465 89.6219L28.7057 89.5982L28.6865 89.3892ZM45.4022 62.2885L45.5966 62.2095L45.3136 61.514L45.1951 62.2554L45.4022 62.2885ZM45.082 64.2904L44.8749 64.2572L45.082 64.2904ZM37.7138 74.43L37.8093 74.6168L37.7138 74.43ZM36.5861 75.0063L36.4906 74.8194L36.5861 75.0063ZM29.1477 85.6418L28.9394 85.6161L29.1477 85.6418ZM15.0787 85.725L14.9566 85.8956L15.2844 86.1302L15.2885 85.7271L15.0787 85.725ZM32.9725 50.8248L33.1722 50.8891L33.2367 50.6888L33.0363 50.6249L32.9725 50.8248ZM32.9464 50.9362L33.1538 50.9675V50.9675L32.9464 50.9362ZM31.759 58.8138L31.9665 58.845L31.759 58.8138ZM24.3716 69.0766L24.2761 68.8898L24.3716 69.0766ZM23.2358 69.6571L23.3313 69.8439L23.2358 69.6571ZM15.8148 80.1564L15.6069 80.1287L15.8148 80.1564ZM15.0847 85.6404L15.2927 85.6681L15.0847 85.6404ZM89.1976 69.6717C89.1976 80.2214 80.7488 88.857 70.1321 89.2498L70.1477 89.6691C80.9852 89.2681 89.6173 80.4517 89.6173 69.6717H89.1976ZM87.0224 60.7407C88.4133 63.4203 89.1976 66.4567 89.1976 69.6717H89.6173C89.6173 66.3877 88.8159 63.2852 87.3949 60.5474L87.0224 60.7407ZM86.8796 64.0297L87.4158 60.6772L87.0014 60.6109L86.4652 63.9634L86.8796 64.0297ZM79.3996 74.323C83.3923 72.2827 86.1711 68.4586 86.8796 64.0297L86.4652 63.9634C85.7779 68.2601 83.082 71.97 79.2087 73.9493L79.3996 74.323ZM78.2719 74.8993L79.3996 74.323L79.2087 73.9493L78.0809 74.5256L78.2719 74.8993ZM70.9463 85.3736C71.4991 80.8818 74.2435 76.9578 78.2719 74.8993L78.0809 74.5256C73.9284 76.6476 71.0996 80.6924 70.5298 85.3223L70.9463 85.3736ZM70.481 89.1547L70.9463 85.3736L70.5298 85.3223L70.0645 89.1035L70.481 89.1547ZM70.3078 89.5853C70.3994 89.4632 70.4611 89.3161 70.481 89.1547L70.0645 89.1035C70.0538 89.1903 70.0208 89.2685 69.972 89.3336L70.3078 89.5853ZM56.8503 84.8568C52.3944 81.2602 49.5552 75.7879 49.5552 69.6717H49.1356C49.1356 75.9211 52.0371 81.5111 56.5868 85.1833L56.8503 84.8568ZM49.5552 69.6717C49.5552 58.8728 58.4078 50.0796 69.3764 50.0796V49.6599C58.1801 49.6599 49.1356 58.637 49.1356 69.6717H49.5552ZM69.3764 50.0796C71.1517 50.0796 72.8713 50.3099 74.5068 50.7417L74.6139 50.3359C72.9437 49.895 71.1881 49.6599 69.3764 49.6599V50.0796ZM74.3599 50.4769C74.3465 50.5202 74.3362 50.565 74.3292 50.6112L74.7442 50.6737C74.748 50.6482 74.7536 50.6239 74.7608 50.6007L74.3599 50.4769ZM74.3292 50.6112L73.1418 58.4887L73.5568 58.5512L74.7442 50.6737L74.3292 50.6112ZM73.1418 58.4887C72.4868 62.8343 69.7784 66.597 65.8665 68.596L66.0574 68.9697C70.0898 66.9091 72.8816 63.0305 73.5568 58.5512L73.1418 58.4887ZM65.8665 68.596L64.7306 69.1764L64.9216 69.5501L66.0574 68.9697L65.8665 68.596ZM64.7306 69.1764C60.622 71.2759 57.8063 75.2597 57.1972 79.8349L57.6132 79.8903C58.2041 75.4517 60.9358 71.5869 64.9216 69.5501L64.7306 69.1764ZM57.1972 79.8349L56.5106 84.9924L56.9265 85.0478L57.6132 79.8903L57.1972 79.8349ZM91.184 69.6717C91.184 81.5871 81.4225 91.2501 69.3764 91.2501V91.6698C81.6501 91.6698 91.6037 81.823 91.6037 69.6717H91.184ZM69.3764 48.0932C81.4225 48.0932 91.184 57.7563 91.184 69.6717H91.6037C91.6037 57.5204 81.6501 47.6735 69.3764 47.6735V48.0932ZM48.2963 64.1238C50.7702 54.8959 59.2697 48.0932 69.3764 48.0932V47.6735C59.0777 47.6735 50.4135 54.6058 47.8909 64.0151L48.2963 64.1238ZM26.8111 48.0944C36.9174 48.0944 45.4166 54.8965 47.8909 64.1238L48.2963 64.0151C45.7733 54.6064 37.1094 47.6747 26.8111 47.6747V48.0944ZM5.00352 69.6729C5.00352 57.7575 14.765 48.0944 26.8111 48.0944V47.6747C14.5374 47.6747 4.58388 57.5216 4.58388 69.6729H5.00352ZM26.8111 91.2513C14.765 91.2513 5.00352 81.5883 5.00352 69.6729H4.58388C4.58388 81.8241 14.5374 91.671 26.8111 91.671V91.2513ZM47.8913 75.2207C45.4173 84.4486 36.9178 91.2513 26.8111 91.2513V91.671C37.1098 91.671 45.774 84.7387 48.2966 75.3294L47.8913 75.2207ZM69.3764 91.2501C59.2701 91.2501 50.7709 84.448 48.2966 75.2207L47.8913 75.3294C50.4142 84.7381 59.0782 91.6698 69.3764 91.6698V91.2501ZM46.6323 69.6729C46.6323 79.8554 38.7614 88.2547 28.6674 89.1803L28.7057 89.5982C39.0103 88.6532 47.052 80.0777 47.052 69.6729H46.6323ZM45.2079 62.3676C46.1268 64.6261 46.6323 67.0919 46.6323 69.6729H47.052C47.052 67.0366 46.5355 64.5172 45.5966 62.2095L45.2079 62.3676ZM45.2892 64.3235L45.6094 62.3217L45.1951 62.2554L44.8749 64.2572L45.2892 64.3235ZM37.8093 74.6168C41.8019 72.5765 44.5808 68.7524 45.2892 64.3235L44.8749 64.2572C44.1876 68.5539 41.4917 72.2638 37.6183 74.2431L37.8093 74.6168ZM36.6815 75.1931L37.8093 74.6168L37.6183 74.2431L36.4906 74.8194L36.6815 75.1931ZM29.3559 85.6674C29.9087 81.1756 32.6531 77.2516 36.6815 75.1931L36.4906 74.8194C32.3381 76.9414 29.5092 80.9862 28.9394 85.6161L29.3559 85.6674ZM28.8948 89.4148L29.3559 85.6674L28.9394 85.6161L28.4783 89.3636L28.8948 89.4148ZM15.2008 85.5544C10.2218 81.9909 6.98992 76.1983 6.98992 69.6729H6.57028C6.57028 76.3405 9.87314 82.2574 14.9566 85.8956L15.2008 85.5544ZM6.98992 69.6729C6.98992 58.874 15.8425 50.0808 26.8111 50.0808V49.6611C15.6148 49.6611 6.57028 58.6382 6.57028 69.6729H6.98992ZM26.8111 50.0808C28.94 50.0808 30.9889 50.412 32.9087 51.0247L33.0363 50.6249C31.0756 49.9992 28.9837 49.6611 26.8111 49.6611V50.0808ZM32.7727 50.7605C32.7578 50.8069 32.7464 50.8551 32.7389 50.905L33.1538 50.9675C33.158 50.9401 33.1642 50.9139 33.1722 50.8891L32.7727 50.7605ZM32.7389 50.905L31.5515 58.7825L31.9665 58.845L33.1538 50.9675L32.7389 50.905ZM31.5515 58.7825C30.8965 63.1281 28.188 66.8908 24.2761 68.8898L24.4671 69.2635C28.4995 67.2029 31.2913 63.3243 31.9665 58.845L31.5515 58.7825ZM24.2761 68.8898L23.1403 69.4702L23.3313 69.8439L24.4671 69.2635L24.2761 68.8898ZM23.1403 69.4702C19.0317 71.5697 16.216 75.5535 15.6069 80.1287L16.0228 80.1841C16.6138 75.7455 19.3454 71.8807 23.3313 69.8439L23.1403 69.4702ZM15.6069 80.1287L14.8767 85.6127L15.2927 85.6681L16.0228 80.1841L15.6069 80.1287ZM14.8767 85.6127C14.8718 85.6496 14.8692 85.6863 14.8689 85.7228L15.2885 85.7271C15.2887 85.7076 15.2901 85.6879 15.2927 85.6681L14.8767 85.6127Z" fill="black" mask="url(#path-4-outside-1)"/>
        <path d="M6.01772 88.0966C6.01772 81.7578 11.1563 76.6192 17.4951 76.6192H46.7724V99.574H17.4951C11.1563 99.574 6.01772 94.4354 6.01772 88.0966Z" fill="white" stroke="#0B0B0B" stroke-width="2.51786"/>
        <path d="M1.29385 24.3382C1.2775 20.6372 4.26446 17.6237 7.96543 17.6074L27.3573 17.5217C35.0304 17.4878 41.3528 23.3545 42.0245 30.8596L8.02466 31.0098C4.3237 31.0261 1.31021 28.0391 1.29385 24.3382Z" fill="#0B0B0B" stroke="#0B0B0B" stroke-width="2.51786"/>
        <path d="M7.37803 130.048C8.02346 122.541 14.3254 116.652 21.9986 116.659L55.1553 116.69C62.8285 116.697 69.1195 122.598 69.751 130.106L7.37803 130.048Z" fill="#0B0B0B" stroke="#0B0B0B" stroke-width="2.51786"/>
        <path d="M100.358 33.4395C100.505 29.7414 97.6265 26.624 93.9284 26.4767L74.5518 25.7045C66.8846 25.3989 60.3588 31.0381 59.4222 38.5147L93.3955 39.8686C97.0935 40.0159 100.211 37.1375 100.358 33.4395Z" fill="#0B0B0B" stroke="#0B0B0B" stroke-width="2.51786"/>
        <path d="M19.6392 187.679C19.6392 187.679 21.5419 192.998 65.3045 192.998C109.067 192.998 136.657 182.36 136.657 182.36" stroke="#0B0B0B" stroke-width="2.51786" stroke-linecap="round"/>
        <path d="M19.4277 216.639C19.4277 216.639 21.3368 221.734 65.2458 221.734C109.155 221.734 136.657 211.41 136.657 211.41" stroke="#0B0B0B" stroke-width="2.51786" stroke-linecap="round"/>
        <path d="M19.4277 201.356C19.4277 201.356 21.3368 206.451 65.2458 206.451C109.155 206.451 136.657 196.271 136.657 196.271" stroke="#0B0B0B" stroke-width="2.51786" stroke-linecap="round"/>
        <path d="M19.4277 200.082C19.4277 200.082 21.3368 205.177 65.2458 205.177C109.155 205.177 136.657 195.044 136.657 195.044" stroke="#0B0B0B" stroke-width="2.51786" stroke-linecap="round"/>
        <path d="M20.4573 203.742C20.4573 203.742 22.3334 208.654 65.4839 208.654C108.634 208.654 135.838 198.829 135.838 198.829" stroke="#0B0B0B" stroke-width="2.51786" stroke-linecap="round"/>
        <line x1="1.25893" y1="-1.25893" x2="49.5965" y2="-1.25893" transform="matrix(0.922703 -0.385513 0.385047 0.922897 90.7002 71.4455)" stroke="#0B0B0B" stroke-width="2.51786" stroke-linecap="round"/>
        <ellipse cx="63.0185" cy="6.17197" rx="0.954514" ry="0.318336" fill="#0B0B0B"/>
        <ellipse cx="68.746" cy="7.44559" rx="0.954507" ry="0.318336" fill="#0B0B0B"/>
        <ellipse cx="65.5636" cy="3.6247" rx="0.954514" ry="0.318336" fill="#0B0B0B"/>
        <ellipse cx="63.655" cy="9.99296" rx="0.954514" ry="0.318336" fill="#0B0B0B"/>
        <ellipse cx="77.0187" cy="4.26142" rx="0.954514" ry="0.318336" fill="#0B0B0B"/>
        <ellipse cx="73.1996" cy="2.35108" rx="0.954511" ry="0.318335" fill="#0B0B0B"/>
        <ellipse cx="80.2001" cy="9.35602" rx="0.954514" ry="0.318335" fill="#0B0B0B"/>
        <ellipse cx="86.5639" cy="8.71909" rx="0.954504" ry="0.318336" fill="#0B0B0B"/>
        <ellipse cx="85.9277" cy="4.89844" rx="0.954507" ry="0.318335" fill="#0B0B0B"/>
        <ellipse cx="90.3818" cy="3.6247" rx="0.954511" ry="0.318336" fill="#0B0B0B"/>
        <ellipse cx="80.8363" cy="2.9878" rx="0.954514" ry="0.318336" fill="#0B0B0B"/>
        <ellipse cx="91.018" cy="6.80869" rx="0.954511" ry="0.318336" fill="#0B0B0B"/>
        <ellipse cx="91.018" cy="9.99296" rx="0.954511" ry="0.318336" fill="#0B0B0B"/>
        <ellipse cx="98.0182" cy="12.54" rx="0.954511" ry="0.318335" fill="#0B0B0B"/>
        <ellipse cx="101.836" cy="9.99296" rx="0.954507" ry="0.318336" fill="#0B0B0B"/>
        <ellipse cx="101.2" cy="7.44559" rx="0.954511" ry="0.318336" fill="#0B0B0B"/>
        <ellipse cx="104.382" cy="13.177" rx="0.954511" ry="0.318336" fill="#0B0B0B"/>
        <ellipse cx="107.564" cy="10.6298" rx="0.954504" ry="0.318336" fill="#0B0B0B"/>
        <ellipse cx="96.1086" cy="8.71909" rx="0.954514" ry="0.318336" fill="#0B0B0B"/>
        <ellipse cx="95.4728" cy="5.53516" rx="0.954507" ry="0.318336" fill="#0B0B0B"/>
        <ellipse cx="81.4728" cy="6.17197" rx="0.954514" ry="0.318336" fill="#0B0B0B"/>
        <ellipse cx="75.746" cy="8.08228" rx="0.954514" ry="0.318336" fill="#0B0B0B"/>
        <ellipse cx="71.9269" cy="9.99296" rx="0.954514" ry="0.318336" fill="#0B0B0B"/>
        <ellipse cx="70.6547" cy="4.89844" rx="0.954514" ry="0.318335" fill="#0B0B0B"/>
        <ellipse cx="56.6545" cy="9.35602" rx="0.954511" ry="0.318335" fill="#0B0B0B"/>
        <path d="M139.585 111.137C152.571 111.137 162.402 98.3716 162.402 81.9155C162.402 65.5463 151.437 52.6943 138.381 52.6943H135.568L125.052 107.035C124.64 109.162 126.27 111.137 128.436 111.137H139.585Z" fill="#00B15C" stroke="#0B0B0B" stroke-width="2.51786"/>
        <path d="M132.144 111.443C132.144 111.443 126.226 124.583 103.191 145.461C80.155 166.338 60.8635 167.116 60.8635 167.116" stroke="black" stroke-width="2.51786"/>
        <ellipse cx="58.1661" cy="167.35" rx="3.91172" ry="3.91451" fill="#0B0B0B"/>
    </g>
    <defs>
        <clipPath id="clip0">
            <rect width="164" height="235" fill="white"/>
        </clipPath>
    </defs>
</svg>
