<svg width="148" height="210" viewBox="0 0 148 210" fill="none" xmlns="http://www.w3.org/2000/svg">
    <g clip-path="url(#clip0)">
        <path d="M131.372 118.387C131.372 86.7713 105.742 61.1418 74.1264 61.1418C42.5108 61.1418 16.8812 86.7713 16.8812 118.387V211.692H131.372V118.387Z" fill="white" stroke="#0B0B0B" stroke-width="2.1859"/>
        <ellipse cx="125.17" cy="126.806" rx="17.4562" ry="17.4872" fill="white"/>
        <path d="M105.45 127.096C105.45 137.106 97.2558 145.238 87.1263 145.238C76.9969 145.238 68.8029 137.106 68.8029 127.096C68.8029 117.087 76.9969 108.955 87.1263 108.955C97.2558 108.955 105.45 117.087 105.45 127.096Z" stroke="#0B0B0B" stroke-width="2.1859"/>
        <path d="M142.988 127.096C142.988 137.106 134.794 145.238 124.665 145.238C114.535 145.238 106.341 137.106 106.341 127.096C106.341 117.087 114.535 108.955 124.665 108.955C134.794 108.955 142.988 117.087 142.988 127.096Z" stroke="#0B0B0B" stroke-width="2.1859"/>
        <mask id="path-5-inside-1" fill="white">
            <path fill-rule="evenodd" clip-rule="evenodd" d="M90.9639 118.501C90.3144 113.761 86.256 110.11 81.3465 110.11C76.4369 110.11 72.3786 113.761 71.729 118.501H69.9548V120.23H103.626V118.501H90.9639Z"/>
        </mask>
        <path fill-rule="evenodd" clip-rule="evenodd" d="M90.9639 118.501C90.3144 113.761 86.256 110.11 81.3465 110.11C76.4369 110.11 72.3786 113.761 71.729 118.501H69.9548V120.23H103.626V118.501H90.9639Z" fill="#0B0B0B"/>
        <path d="M90.9639 118.501L90.5357 118.559L90.5869 118.933H90.9639V118.501ZM71.729 118.501V118.933H72.1061L72.1572 118.559L71.729 118.501ZM69.9548 118.501V118.068H69.5226V118.501H69.9548ZM69.9548 120.23H69.5226V120.662H69.9548V120.23ZM103.626 120.23V120.662H104.058V120.23H103.626ZM103.626 118.501H104.058V118.068H103.626V118.501ZM81.3465 110.543C86.0365 110.543 89.915 114.03 90.5357 118.559L91.3922 118.442C90.7138 113.492 86.4756 109.678 81.3465 109.678V110.543ZM72.1572 118.559C72.7779 114.03 76.6565 110.543 81.3465 110.543V109.678C76.2174 109.678 71.9792 113.492 71.3008 118.442L72.1572 118.559ZM69.9548 118.933H71.729V118.068H69.9548V118.933ZM70.3871 120.23V118.501H69.5226V120.23H70.3871ZM103.626 119.797H69.9548V120.662H103.626V119.797ZM103.194 118.501V120.23H104.058V118.501H103.194ZM90.9639 118.933H103.626V118.068H90.9639V118.933Z" fill="#0B0B0B" mask="url(#path-5-inside-1)"/>
        <line x1="107.554" y1="119.365" x2="141.225" y2="119.365" stroke="#0B0B0B" stroke-width="1.72896"/>
        <path d="M118.946 110.327C124.116 110.327 128.321 114.468 128.436 119.62H109.456C109.571 114.468 113.776 110.327 118.946 110.327Z" fill="#0B0B0B" stroke="#0B0B0B" stroke-width="0.432239"/>
        <path d="M132.327 143.914C132.327 137.631 127.233 132.537 120.95 132.537H105.916V155.291H120.95C127.233 155.291 132.327 150.197 132.327 143.914Z" fill="white" stroke="#0B0B0B" stroke-width="2.1859"/>
        <path d="M56.4089 103.975C56.1605 102.955 56.786 101.925 57.806 101.676L90.6087 93.6583C92.8394 93.113 95.0859 94.2459 96.0207 96.2498L58.7055 105.371C57.6855 105.62 56.6573 104.995 56.4089 103.975Z" fill="#0B0B0B" stroke="#0B0B0B" stroke-width="1.8701"/>
        <path d="M146.217 92.4809C146.254 91.4314 145.433 90.5506 144.383 90.5135L110.641 89.3231C108.345 89.2421 106.374 90.8076 105.864 92.9599L144.249 94.3142C145.299 94.3512 146.18 93.5304 146.217 92.4809Z" fill="#0B0B0B" stroke="#0B0B0B" stroke-width="1.8701"/>
        <path d="M47.2009 84.4598H124.066C131.678 84.4598 136.706 76.6716 132.378 70.4095C123.638 57.7625 108.917 44.4744 86.2675 44.4745C44.1699 44.4747 30.6987 43.8497 18.5746 58.5319C7.4232 72.036 -1.50114 137.431 2.49115 166.188C2.64146 167.271 3.28453 168.192 4.22009 168.757L33.0143 186.158C39.246 189.924 47.2009 185.437 47.2009 178.156V84.4598Z" fill="#0B0B0B" stroke="#0B0B0B" stroke-width="0.623366"/>
        <ellipse rx="0.932491" ry="0.311683" transform="matrix(-1 0 0 1 88.8654 65.9811)" fill="#0B0B0B"/>
        <ellipse rx="0.932491" ry="0.311683" transform="matrix(-1 0 0 1 83.2704 67.2281)" fill="#0B0B0B"/>
        <ellipse rx="0.932491" ry="0.311683" transform="matrix(-1 0 0 1 86.3785 63.487)" fill="#0B0B0B"/>
        <ellipse rx="0.932494" ry="0.311683" transform="matrix(-1 0 0 1 88.244 69.7221)" fill="#0B0B0B"/>
        <ellipse rx="0.932491" ry="0.311683" transform="matrix(-1 0 0 1 75.1881 64.1106)" fill="#0B0B0B"/>
        <ellipse rx="0.932491" ry="0.311683" transform="matrix(-1 0 0 1 78.9186 62.2403)" fill="#0B0B0B"/>
        <ellipse rx="0.932491" ry="0.311683" transform="matrix(-1 0 0 1 72.0804 69.0984)" fill="#0B0B0B"/>
        <ellipse rx="0.932494" ry="0.311683" transform="matrix(-1 0 0 1 65.8636 68.4753)" fill="#0B0B0B"/>
        <ellipse rx="0.932494" ry="0.311683" transform="matrix(-1 0 0 1 66.4857 64.7344)" fill="#0B0B0B"/>
        <ellipse rx="0.932494" ry="0.311683" transform="matrix(-1 0 0 1 62.1337 63.487)" fill="#0B0B0B"/>
        <ellipse rx="0.932491" ry="0.311683" transform="matrix(-1 0 0 1 71.4591 62.8634)" fill="#0B0B0B"/>
        <ellipse rx="0.932494" ry="0.311683" transform="matrix(-1 0 0 1 61.5121 66.6048)" fill="#0B0B0B"/>
        <ellipse rx="0.932494" ry="0.311683" transform="matrix(-1 0 0 1 61.5121 69.7221)" fill="#0B0B0B"/>
        <ellipse rx="0.932494" ry="0.311683" transform="matrix(-1 0 0 1 54.6744 72.2161)" fill="#0B0B0B"/>
        <ellipse rx="0.932494" ry="0.311683" transform="matrix(-1 0 0 1 50.944 69.7221)" fill="#0B0B0B"/>
        <ellipse rx="0.932494" ry="0.311683" transform="matrix(-1 0 0 1 51.5663 67.2281)" fill="#0B0B0B"/>
        <ellipse rx="0.932498" ry="0.311683" transform="matrix(-1 0 0 1 48.4572 72.8396)" fill="#0B0B0B"/>
        <ellipse rx="0.932494" ry="0.311683" transform="matrix(-1 0 0 1 45.3488 70.3456)" fill="#0B0B0B"/>
        <ellipse rx="0.932494" ry="0.311683" transform="matrix(-1 0 0 1 56.5389 68.4753)" fill="#0B0B0B"/>
        <ellipse rx="0.932494" ry="0.311683" transform="matrix(-1 0 0 1 57.1605 65.3575)" fill="#0B0B0B"/>
        <ellipse rx="0.932489" ry="0.311683" transform="matrix(-1 0 0 1 70.8373 65.9811)" fill="#0B0B0B"/>
        <ellipse rx="0.932491" ry="0.311683" transform="matrix(-1 0 0 1 76.432 67.8516)" fill="#0B0B0B"/>
        <ellipse rx="0.932494" ry="0.311683" transform="matrix(-1 0 0 1 80.1615 69.7221)" fill="#0B0B0B"/>
        <ellipse rx="0.932489" ry="0.311683" transform="matrix(-1 0 0 1 81.4052 64.7344)" fill="#0B0B0B"/>
        <ellipse rx="0.932491" ry="0.311683" transform="matrix(-1 0 0 1 95.0817 69.0984)" fill="#0B0B0B"/>
        <path d="M1.36994 2.66735L13.4847 72.3151C13.5327 72.5908 13.6659 72.8441 13.906 72.9879C20.8255 77.1311 54.9882 58.8696 57.3166 47.5383C57.3958 47.1528 57.2311 46.7743 56.9295 46.5215L3.29873 1.55622C2.45218 0.846456 1.18062 1.57897 1.36994 2.66735Z" fill="#00B15C" stroke="#0B0B0B" stroke-width="1.77748"/>
        <path d="M14.325 71.9316C35.2752 65.8798 42.3491 58.6301 51.2696 43.639C51.4278 43.3732 51.122 43.0726 50.8584 43.2342C37.269 51.5636 28.5394 54.8619 12.3552 57.2709C12.0641 57.3143 11.8912 56.9535 12.1118 56.7587L38.7814 33.2162C39.0519 32.9773 38.731 32.5405 38.4192 32.7223C28.8732 38.2895 21.044 41.6663 9.68329 42.5191C9.37043 42.5425 9.24789 42.1281 9.52002 41.9719C19.5305 36.2277 24.1619 32.1627 28.6933 24.1022C28.8315 23.8564 28.5776 23.578 28.3183 23.6887C21.8937 26.4319 17.1972 27.8124 7.60691 29.4087C7.31734 29.4569 7.14374 29.0985 7.3588 28.8987C11.8791 24.6991 15.0082 21.5621 18.8956 16.3668C19.0832 16.116 18.8011 15.785 18.5213 15.9257C13.7469 18.3268 10.2334 19.4671 5.33797 19.4997C5.06666 19.5015 4.93673 19.1661 5.13472 18.9805C8.99825 15.3604 14.6149 7.85728 11.3678 9.42351C7.71373 11.186 3.97962 10.8136 2.49609 9.42351" stroke="white" stroke-width="1.77748"/>
        <path fill-rule="evenodd" clip-rule="evenodd" d="M2.72797 2.23739C2.51633 2.05994 2.19844 2.24308 2.24577 2.51516L14.3606 72.163C14.3672 72.2008 14.3762 72.2246 14.382 72.2369C15.0108 72.6042 16.069 72.7817 17.5936 72.6627C19.1052 72.5447 20.9474 72.1461 23.0176 71.504C27.1544 70.221 32.0875 68.0019 36.8969 65.2919C41.7057 62.5822 46.3547 59.4021 49.9336 56.2143C51.723 54.6204 53.2296 53.0381 54.3534 51.5252C55.4825 50.0052 56.1912 48.6006 56.4463 47.3595C56.4489 47.3468 56.4492 47.3313 56.4396 47.3071C56.4289 47.28 56.4046 47.2411 56.3588 47.2027L2.72797 2.23739ZM0.494586 2.81977C0.16328 0.915101 2.38852 -0.366782 3.86997 0.875302L57.5008 45.8406C58.0073 46.2653 58.3434 46.9579 58.1874 47.7173C57.8603 49.309 56.9921 50.9538 55.7803 52.5852C54.5631 54.2237 52.9647 55.8947 51.1158 57.5416C47.4181 60.8353 42.6574 64.0862 37.7695 66.8404C32.8823 69.5943 27.8318 71.8719 23.5442 73.2017C21.4022 73.8661 19.4221 74.3029 17.7319 74.4348C16.0703 74.5645 14.5532 74.4112 13.4497 73.7505C12.923 73.4352 12.6868 72.9126 12.6094 72.4676L0.494586 2.81977Z" fill="#0B0B0B"/>
        <path d="M93.1271 185.693L83.0225 187.444C80.4053 187.898 77.73 187.898 75.1128 187.444L65.0082 185.693C59.714 184.775 55.8464 180.168 55.8464 174.779C55.8464 166.509 64.7136 161.173 72.094 165.011C76.4423 167.272 81.693 167.272 86.0413 165.011C93.4217 161.173 102.289 166.509 102.289 174.779C102.289 180.168 98.4214 184.775 93.1271 185.693ZM73.0366 163.189C64.3245 158.658 53.7993 164.935 53.7993 174.779C53.7993 181.167 58.3833 186.627 64.6594 187.715L74.7641 189.467C77.612 189.96 80.5233 189.96 83.3713 189.467L93.4759 187.715C99.752 186.627 104.336 181.167 104.336 174.779C104.336 164.935 93.8108 158.658 85.0987 163.189C81.3415 165.143 76.7939 165.143 73.0366 163.189Z" fill="#0B0B0B" stroke="black" stroke-width="0.182158"/>
        <path d="M66.0129 173.598C66.0129 173.598 71.2971 177.339 79.6895 177.339C88.0819 177.339 93.366 173.598 93.366 173.598" stroke="#0B0B0B" stroke-width="2.1859" stroke-linecap="round"/>
    </g>
    <defs>
        <clipPath id="clip0">
            <rect width="147.251" height="210" fill="white"/>
        </clipPath>
    </defs>
</svg>
