<svg width="273" height="240" viewBox="0 0 273 240" fill="none" xmlns="http://www.w3.org/2000/svg">
    <g clip-path="url(#clip0)">
        <path d="M86.2452 1.30045V51.3036L95.2818 54.5296L107.546 61.3042L115.937 70.337L123.037 80.3377L122.069 62.272L120.778 49.368L116.905 35.8187L112.387 27.4311L106.255 19.0435L98.8318 11.3011L86.2452 1.30045Z" fill="#00B15C" stroke="black" stroke-width="0.645466"/>
        <path d="M21.0168 103.717C21.0168 74.3714 44.8059 50.5823 74.1512 50.5823C103.497 50.5823 127.286 74.3714 127.286 103.717V241.571H21.0168V103.717Z" fill="white" stroke="#0B0B0B" stroke-width="2.57143"/>
        <ellipse cx="28.4162" cy="115.356" rx="19.137" ry="18.5496" fill="white"/>
        <ellipse cx="67.2695" cy="115.355" rx="19.137" ry="18.5496" fill="white"/>
        <mask id="path-5-outside-1" maskUnits="userSpaceOnUse" x="7.11865" y="94.646" width="81" height="41" fill="black">
            <rect fill="white" x="7.11865" y="94.646" width="81" height="41"/>
            <path fill-rule="evenodd" clip-rule="evenodd" d="M46.4637 115.479C46.4637 125.428 38.2987 133.529 28.1829 133.529C18.0672 133.529 9.90214 125.428 9.90214 115.479C9.90214 114.802 9.94003 114.132 10.0138 113.474H18.2233C18.2624 118.979 22.7389 123.429 28.2552 123.429C33.7716 123.429 38.248 118.979 38.2871 113.474H46.352C46.4258 114.132 46.4637 114.802 46.4637 115.479ZM28.1829 97.4295C19.3881 97.4295 12.0678 103.553 10.306 111.69H46.0599C44.2981 103.553 36.9778 97.4295 28.1829 97.4295ZM47.5785 120.576C45.3027 129.06 37.4815 135.312 28.1829 135.312C17.1017 135.312 8.11865 126.433 8.11865 115.479C8.11865 104.526 17.1017 95.646 28.1829 95.646C37.4815 95.646 45.3028 101.899 47.5785 110.382C49.8542 101.899 57.6754 95.6461 66.974 95.6461C78.0552 95.6461 87.0383 104.526 87.0383 115.479C87.0383 126.433 78.0552 135.313 66.974 135.313C57.6754 135.313 49.8541 129.06 47.5785 120.576ZM85.2548 115.479C85.2548 125.429 77.0897 133.529 66.974 133.529C56.8583 133.529 48.6932 125.429 48.6932 115.479C48.6932 114.802 48.7311 114.132 48.8049 113.474H57.1513C57.1904 118.979 61.6669 123.429 67.1832 123.429C72.6996 123.429 77.176 118.979 77.2151 113.474H85.1431C85.2169 114.132 85.2548 114.802 85.2548 115.479ZM84.8509 111.69H49.0971C50.8589 103.553 58.1792 97.4296 66.974 97.4296C75.7688 97.4296 83.0891 103.553 84.8509 111.69Z"/>
        </mask>
        <path fill-rule="evenodd" clip-rule="evenodd" d="M46.4637 115.479C46.4637 125.428 38.2987 133.529 28.1829 133.529C18.0672 133.529 9.90214 125.428 9.90214 115.479C9.90214 114.802 9.94003 114.132 10.0138 113.474H18.2233C18.2624 118.979 22.7389 123.429 28.2552 123.429C33.7716 123.429 38.248 118.979 38.2871 113.474H46.352C46.4258 114.132 46.4637 114.802 46.4637 115.479ZM28.1829 97.4295C19.3881 97.4295 12.0678 103.553 10.306 111.69H46.0599C44.2981 103.553 36.9778 97.4295 28.1829 97.4295ZM47.5785 120.576C45.3027 129.06 37.4815 135.312 28.1829 135.312C17.1017 135.312 8.11865 126.433 8.11865 115.479C8.11865 104.526 17.1017 95.646 28.1829 95.646C37.4815 95.646 45.3028 101.899 47.5785 110.382C49.8542 101.899 57.6754 95.6461 66.974 95.6461C78.0552 95.6461 87.0383 104.526 87.0383 115.479C87.0383 126.433 78.0552 135.313 66.974 135.313C57.6754 135.313 49.8541 129.06 47.5785 120.576ZM85.2548 115.479C85.2548 125.429 77.0897 133.529 66.974 133.529C56.8583 133.529 48.6932 125.429 48.6932 115.479C48.6932 114.802 48.7311 114.132 48.8049 113.474H57.1513C57.1904 118.979 61.6669 123.429 67.1832 123.429C72.6996 123.429 77.176 118.979 77.2151 113.474H85.1431C85.2169 114.132 85.2548 114.802 85.2548 115.479ZM84.8509 111.69H49.0971C50.8589 103.553 58.1792 97.4296 66.974 97.4296C75.7688 97.4296 83.0891 103.553 84.8509 111.69Z" fill="#0B0B0B"/>
        <path d="M10.0138 113.474V113.26H9.82223L9.80089 113.45L10.0138 113.474ZM18.2233 113.474L18.4376 113.472L18.4361 113.26H18.2233V113.474ZM38.2871 113.474V113.26H38.0743L38.0728 113.472L38.2871 113.474ZM46.352 113.474L46.565 113.45L46.5436 113.26H46.352V113.474ZM10.306 111.69L10.0965 111.645L10.0403 111.905H10.306V111.69ZM46.0599 111.69V111.905H46.3255L46.2693 111.645L46.0599 111.69ZM47.5785 120.576L47.7854 120.521L47.5785 119.749L47.3715 120.521L47.5785 120.576ZM47.5785 110.382L47.3715 110.438L47.5785 111.21L47.7854 110.438L47.5785 110.382ZM48.8049 113.474V113.26H48.6133L48.592 113.45L48.8049 113.474ZM57.1513 113.474L57.3656 113.472L57.3641 113.26H57.1513V113.474ZM77.2151 113.474V113.26H77.0023L77.0008 113.472L77.2151 113.474ZM85.1431 113.474L85.356 113.45L85.3347 113.26H85.1431V113.474ZM49.0971 111.69L48.8876 111.645L48.8314 111.905H49.0971V111.69ZM84.8509 111.69V111.905H85.1166L85.0604 111.645L84.8509 111.69ZM28.1829 133.743C38.4147 133.743 46.678 125.549 46.678 115.479H46.2494C46.2494 125.308 38.1826 133.315 28.1829 133.315V133.743ZM9.68786 115.479C9.68786 125.549 17.9511 133.743 28.1829 133.743V133.315C18.1833 133.315 10.1164 125.308 10.1164 115.479H9.68786ZM9.80089 113.45C9.72619 114.116 9.68786 114.794 9.68786 115.479H10.1164C10.1164 114.81 10.1539 114.148 10.2268 113.498L9.80089 113.45ZM18.2233 113.26H10.0138V113.688H18.2233V113.26ZM18.0091 113.475C18.049 119.098 22.6211 123.643 28.2552 123.643V123.215C22.8566 123.215 18.4758 118.859 18.4376 113.472L18.0091 113.475ZM28.2552 123.643C33.8893 123.643 38.4615 119.098 38.5014 113.475L38.0728 113.472C38.0346 118.859 33.6538 123.215 28.2552 123.215V123.643ZM46.352 113.26H38.2871V113.688H46.352V113.26ZM46.678 115.479C46.678 114.794 46.6397 114.116 46.565 113.45L46.1391 113.498C46.212 114.148 46.2494 114.81 46.2494 115.479H46.678ZM10.5154 111.736C12.256 103.696 19.4895 97.6438 28.1829 97.6438V97.2152C19.2867 97.2152 11.8796 103.409 10.0965 111.645L10.5154 111.736ZM46.0599 111.476H10.306V111.905H46.0599V111.476ZM28.1829 97.6438C36.8764 97.6438 44.1099 103.696 45.8504 111.736L46.2693 111.645C44.4863 103.409 37.0791 97.2152 28.1829 97.2152V97.6438ZM28.1829 135.527C37.5794 135.527 45.4848 129.208 47.7854 120.632L47.3715 120.521C45.1206 128.912 37.3836 135.098 28.1829 135.098V135.527ZM7.90437 115.479C7.90437 126.554 16.9857 135.527 28.1829 135.527V135.098C17.2177 135.098 8.33294 126.312 8.33294 115.479H7.90437ZM28.1829 95.4317C16.9857 95.4317 7.90437 104.405 7.90437 115.479H8.33294C8.33294 104.646 17.2177 95.8603 28.1829 95.8603V95.4317ZM47.7854 110.327C45.4849 101.75 37.5794 95.4317 28.1829 95.4317V95.8603C37.3837 95.8603 45.1207 102.047 47.3715 110.438L47.7854 110.327ZM66.974 95.4318C57.5775 95.4318 49.6721 101.75 47.3715 110.327L47.7854 110.438C50.0363 102.047 57.7733 95.8604 66.974 95.8604V95.4318ZM87.2526 115.479C87.2526 104.405 78.1712 95.4318 66.974 95.4318V95.8604C77.9392 95.8604 86.824 104.646 86.824 115.479H87.2526ZM66.974 135.527C78.1712 135.527 87.2526 126.554 87.2526 115.479H86.824C86.824 126.312 77.9392 135.098 66.974 135.098V135.527ZM47.3715 120.632C49.6721 129.208 57.5775 135.527 66.974 135.527V135.098C57.7733 135.098 50.0362 128.912 47.7854 120.521L47.3715 120.632ZM66.974 133.743C77.2058 133.743 85.4691 125.549 85.4691 115.479H85.0405C85.0405 125.308 76.9737 133.315 66.974 133.315V133.743ZM48.4789 115.479C48.4789 125.549 56.7422 133.743 66.974 133.743V133.315C56.9743 133.315 48.9075 125.308 48.9075 115.479H48.4789ZM48.592 113.45C48.5173 114.116 48.4789 114.794 48.4789 115.479H48.9075C48.9075 114.81 48.945 114.148 49.0179 113.498L48.592 113.45ZM57.1513 113.26H48.8049V113.688H57.1513V113.26ZM67.1832 123.215C61.7846 123.215 57.4039 118.859 57.3656 113.472L56.9371 113.475C56.977 119.098 61.5491 123.643 67.1832 123.643V123.215ZM77.0008 113.472C76.9626 118.859 72.5818 123.215 67.1832 123.215V123.643C72.8173 123.643 77.3895 119.098 77.4294 113.475L77.0008 113.472ZM85.1431 113.26H77.2151V113.688H85.1431V113.26ZM85.4691 115.479C85.4691 114.794 85.4307 114.116 85.356 113.45L84.9301 113.498C85.003 114.148 85.0405 114.81 85.0405 115.479H85.4691ZM49.0971 111.905H84.8509V111.476H49.0971V111.905ZM66.974 97.2153C58.0778 97.2153 50.6707 103.409 48.8876 111.645L49.3065 111.736C51.0471 103.696 58.2806 97.6439 66.974 97.6439V97.2153ZM85.0604 111.645C83.2773 103.409 75.8702 97.2153 66.974 97.2153V97.6439C75.6674 97.6439 82.9009 103.696 84.6415 111.736L85.0604 111.645Z" fill="black" mask="url(#path-5-outside-1)"/>
        <path d="M1.07143 75.6474C1.07143 72.2373 3.83584 69.4729 7.24592 69.4729H24.9421C31.9933 69.4729 37.7744 74.9109 38.3203 81.8218H7.24592C3.83584 81.8218 1.07143 79.0574 1.07143 75.6474Z" fill="#0B0B0B" stroke="#0B0B0B" stroke-width="2.14286"/>
        <path d="M94.0339 86.6611C94.0339 83.2511 91.2695 80.4867 87.8594 80.4867H70.1633C63.112 80.4867 57.3309 85.9247 56.785 92.8356H87.8594C91.2695 92.8356 94.0339 90.0712 94.0339 86.6611Z" fill="#0B0B0B" stroke="#0B0B0B" stroke-width="2.14286"/>
        <path d="M75.3882 168.334C75.3882 159.246 85.1379 153.45 93.2093 157.633C96.7388 159.463 101.01 159.463 104.54 157.633C112.611 153.45 122.361 159.246 122.361 168.334C122.361 174.232 118.114 179.273 112.301 180.278L102.875 181.906C100.228 182.363 97.5216 182.363 94.8745 181.906L85.4485 180.278C79.6348 179.273 75.3882 174.232 75.3882 168.334Z" fill="white"/>
        <path d="M111.989 178.476L102.563 180.104C100.122 180.526 97.6269 180.526 95.186 180.104L85.76 178.476C80.8232 177.623 77.2172 173.342 77.2172 168.334C77.2172 160.649 85.4851 155.689 92.3674 159.256C96.4248 161.359 101.324 161.359 105.382 159.256C112.264 155.689 120.532 160.649 120.532 168.334C120.532 173.342 116.926 177.623 111.989 178.476ZM93.2504 157.554C85.121 153.34 75.2989 159.177 75.2989 168.334C75.2989 174.275 79.5768 179.354 85.4333 180.365L94.8593 181.994C97.5164 182.453 100.233 182.453 102.89 181.994L112.316 180.365C118.172 179.354 122.45 174.275 122.45 168.334C122.45 159.177 112.628 153.34 104.499 157.554C100.995 159.37 96.7542 159.37 93.2504 157.554Z" fill="#0B0B0B" stroke="black" stroke-width="0.178571"/>
        <path d="M86.6968 167.236C86.6968 167.236 91.626 170.714 99.4548 170.714C107.284 170.714 112.213 167.236 112.213 167.236" stroke="#0B0B0B" stroke-width="2.14286" stroke-linecap="round"/>
        <path d="M49.0026 215.928C49.0026 215.928 52.1921 220.276 62.0506 220.276C71.909 220.276 75.0985 215.928 75.0985 215.928" stroke="#0B0B0B" stroke-width="2.14286" stroke-linecap="round"/>
        <path d="M49.2924 220.276C49.2924 220.276 52.4819 224.624 62.3403 224.624C72.1988 224.624 75.3883 220.276 75.3883 220.276" stroke="#0B0B0B" stroke-width="2.14286" stroke-linecap="round"/>
        <path d="M27.924 144.918C27.924 148.488 25.0288 151.383 21.4566 151.383C17.8843 151.383 14.9892 148.488 14.9892 144.918C14.9892 141.349 17.8843 138.454 21.4566 138.454C25.0288 138.454 27.924 141.349 27.924 144.918Z" stroke="#00B15C" stroke-width="2.14286"/>
        <path d="M9.76979 131.586C9.76979 125.775 14.4807 121.064 20.2918 121.064H47.0608V142.108H20.2918C14.4807 142.108 9.76979 137.397 9.76979 131.586Z" fill="white" stroke="#0B0B0B" stroke-width="2.14286"/>
        <path d="M60.2224 1.15985C60.2224 1.11103 60.262 1.07146 60.3108 1.07146H85.247C85.2958 1.07146 85.3354 1.11104 85.3354 1.15985V51.5869C85.3354 51.5966 85.3341 51.6034 85.333 51.6077C83.8213 52.5273 78.9476 55.1569 72.7789 55.1569C66.6102 55.1569 61.7366 52.5273 60.2248 51.6077C60.2237 51.6035 60.2224 51.5966 60.2224 51.5869V1.15985Z" fill="#00B15C" stroke="#0B0B0B" stroke-width="2.14286"/>
        <path d="M86.3135 0.436349C85.823 0.105366 85.1571 0.234686 84.8261 0.725195C84.4951 1.2157 84.6244 1.88165 85.1149 2.21264L86.3135 0.436349ZM115.821 34.158L116.803 33.7292L115.821 34.158ZM85.7142 1.32449C85.1149 2.21264 85.1149 2.21258 85.1149 2.21258C85.115 2.21266 85.1151 2.21272 85.1153 2.21288C85.1157 2.21318 85.1165 2.21372 85.1177 2.21449C85.1199 2.21602 85.1235 2.21846 85.1285 2.22181C85.1383 2.22852 85.1535 2.23885 85.1739 2.25276C85.2145 2.28057 85.2759 2.32271 85.3568 2.37879C85.5186 2.49094 85.7585 2.65883 86.0675 2.87943C86.6857 3.32065 87.58 3.9725 88.6786 4.81074C90.8766 6.48777 93.8881 8.90782 97.1387 11.8769C103.663 17.8361 111.055 25.9218 114.839 34.5868L116.803 33.7292C112.837 24.6464 105.175 16.3153 98.5839 10.2947C95.2766 7.2739 92.2146 4.81329 89.9785 3.10714C88.86 2.25378 87.9472 1.58841 87.3125 1.13531C86.9951 0.908746 86.7471 0.735197 86.5776 0.617704C86.4929 0.558956 86.4277 0.514217 86.3833 0.483866C86.3612 0.46869 86.3441 0.457111 86.3325 0.449176C86.3266 0.445208 86.3221 0.442152 86.3189 0.440012C86.3174 0.438942 86.3161 0.438101 86.3152 0.437491C86.3148 0.437185 86.3143 0.4369 86.3141 0.436747C86.3138 0.436519 86.3135 0.436349 85.7142 1.32449ZM114.839 34.5868C118.641 43.2937 120.568 55.6448 121.536 65.9089C122.018 71.0233 122.259 75.5871 122.38 78.8719C122.44 80.514 122.47 81.8355 122.485 82.7454C122.492 83.2003 122.496 83.5522 122.498 83.7898C122.499 83.9085 122.499 83.9987 122.5 84.0588C122.5 84.0889 122.5 84.1115 122.5 84.1264C122.5 84.1338 122.5 84.1393 122.5 84.1429C122.5 84.1447 122.5 84.146 122.5 84.1468C122.5 84.1472 122.5 84.1474 122.5 84.1476C122.5 84.1478 122.5 84.1478 123.571 84.1478C124.643 84.1478 124.643 84.1475 124.643 84.1471C124.643 84.1469 124.643 84.1464 124.643 84.1458C124.643 84.1446 124.643 84.143 124.643 84.1409C124.643 84.1366 124.643 84.1304 124.643 84.1223C124.643 84.106 124.643 84.0821 124.643 84.0506C124.642 83.9877 124.642 83.8946 124.641 83.7729C124.639 83.5295 124.635 83.1714 124.627 82.71C124.612 81.7873 124.582 80.4513 124.521 78.7934C124.399 75.4782 124.156 70.8723 123.669 65.7078C122.699 55.4139 120.751 42.7702 116.803 33.7292L114.839 34.5868Z" fill="#0B0B0B"/>
        <line x1="66.6012" y1="1.15933" x2="66.6012" y2="54.4893" stroke="#0B0B0B" stroke-width="2.14286"/>
        <line x1="79.3596" y1="1.15933" x2="79.3596" y2="54.4893" stroke="#0B0B0B" stroke-width="2.14286"/>
        <line x1="72.9802" y1="1.15933" x2="72.9802" y2="54.4893" stroke="#0B0B0B" stroke-width="2.14286"/>
    </g>
    <g clip-path="url(#clip1)">
        <path d="M154.723 156.955C154.723 128.305 177.948 105.08 206.598 105.08C235.248 105.08 258.473 128.305 258.473 156.955V241.261H154.723V156.955Z" fill="white" stroke="#0B0B0B" stroke-width="1.97727"/>
        <ellipse cx="160.288" cy="165.573" rx="18.5897" ry="18.0475" fill="white"/>
        <ellipse cx="198.03" cy="165.574" rx="18.5897" ry="18.0475" fill="white"/>
        <mask id="path-24-outside-2" maskUnits="userSpaceOnUse" x="140.797" y="145.398" width="78" height="40" fill="black">
            <rect fill="white" x="140.797" y="145.398" width="78" height="40"/>
            <path fill-rule="evenodd" clip-rule="evenodd" d="M160.624 183.257C150.801 183.257 142.868 175.378 142.868 165.695C142.868 156.012 150.801 148.132 160.624 148.132C170.447 148.132 178.381 156.012 178.381 165.695C178.381 175.378 170.447 183.257 160.624 183.257ZM160.624 184.991C149.86 184.991 141.134 176.352 141.134 165.695C141.134 155.038 149.86 146.398 160.624 146.398C169.657 146.398 177.255 152.482 179.465 160.737C181.676 152.482 189.273 146.399 198.306 146.399C209.07 146.399 217.797 155.038 217.797 165.695C217.797 176.353 209.07 184.992 198.306 184.992C189.273 184.992 181.675 178.908 179.465 170.653C177.255 178.908 169.657 184.991 160.624 184.991ZM198.306 183.258C188.483 183.258 180.55 175.378 180.55 165.695C180.55 156.012 188.483 148.133 198.306 148.133C208.129 148.133 216.062 156.012 216.062 165.695C216.062 175.378 208.129 183.258 198.306 183.258ZM204.538 156.018C200.852 156.018 201.286 158.067 201.925 161.089C202.218 162.475 202.555 164.066 202.557 165.758C202.555 167.45 202.218 169.041 201.925 170.427C201.286 173.449 200.852 175.498 204.538 175.498C209.909 175.498 214.265 171.148 214.283 165.775H214.283L214.283 165.758L214.283 165.741H214.283C214.265 160.368 209.909 156.018 204.538 156.018ZM166.828 175.498C163.142 175.498 163.575 173.449 164.214 170.427C164.507 169.041 164.844 167.45 164.846 165.758C164.844 164.066 164.507 162.475 164.214 161.089C163.575 158.067 163.142 156.018 166.828 156.018C172.199 156.018 176.555 160.368 176.573 165.741H176.573C176.573 165.747 176.573 165.752 176.573 165.758C176.573 165.764 176.573 165.769 176.573 165.775H176.573C176.555 171.148 172.199 175.498 166.828 175.498Z"/>
        </mask>
        <path fill-rule="evenodd" clip-rule="evenodd" d="M160.624 183.257C150.801 183.257 142.868 175.378 142.868 165.695C142.868 156.012 150.801 148.132 160.624 148.132C170.447 148.132 178.381 156.012 178.381 165.695C178.381 175.378 170.447 183.257 160.624 183.257ZM160.624 184.991C149.86 184.991 141.134 176.352 141.134 165.695C141.134 155.038 149.86 146.398 160.624 146.398C169.657 146.398 177.255 152.482 179.465 160.737C181.676 152.482 189.273 146.399 198.306 146.399C209.07 146.399 217.797 155.038 217.797 165.695C217.797 176.353 209.07 184.992 198.306 184.992C189.273 184.992 181.675 178.908 179.465 170.653C177.255 178.908 169.657 184.991 160.624 184.991ZM198.306 183.258C188.483 183.258 180.55 175.378 180.55 165.695C180.55 156.012 188.483 148.133 198.306 148.133C208.129 148.133 216.062 156.012 216.062 165.695C216.062 175.378 208.129 183.258 198.306 183.258ZM204.538 156.018C200.852 156.018 201.286 158.067 201.925 161.089C202.218 162.475 202.555 164.066 202.557 165.758C202.555 167.45 202.218 169.041 201.925 170.427C201.286 173.449 200.852 175.498 204.538 175.498C209.909 175.498 214.265 171.148 214.283 165.775H214.283L214.283 165.758L214.283 165.741H214.283C214.265 160.368 209.909 156.018 204.538 156.018ZM166.828 175.498C163.142 175.498 163.575 173.449 164.214 170.427C164.507 169.041 164.844 167.45 164.846 165.758C164.844 164.066 164.507 162.475 164.214 161.089C163.575 158.067 163.142 156.018 166.828 156.018C172.199 156.018 176.555 160.368 176.573 165.741H176.573C176.573 165.747 176.573 165.752 176.573 165.758C176.573 165.764 176.573 165.769 176.573 165.775H176.573C176.555 171.148 172.199 175.498 166.828 175.498Z" fill="#0B0B0B"/>
        <path d="M179.465 160.737L179.624 160.779L179.465 161.374L179.306 160.779L179.465 160.737ZM179.465 170.653L179.306 170.611L179.465 170.016L179.624 170.611L179.465 170.653ZM201.925 161.089L201.764 161.123L201.925 161.089ZM202.557 165.758L202.722 165.758V165.758L202.557 165.758ZM201.925 170.427L202.086 170.461L201.925 170.427ZM214.283 165.775L214.119 165.774L214.119 165.61H214.283V165.775ZM214.283 165.775L214.448 165.775L214.448 165.939H214.283V165.775ZM214.283 165.758L214.119 165.758L214.119 165.758L214.283 165.758ZM214.283 165.741V165.576H214.448L214.448 165.741L214.283 165.741ZM214.283 165.741V165.906H214.119L214.119 165.742L214.283 165.741ZM164.214 170.427L164.053 170.393L164.214 170.427ZM164.846 165.758L165.011 165.758V165.758L164.846 165.758ZM164.214 161.089L164.375 161.055L164.214 161.089ZM176.573 165.741V165.906H176.409L176.408 165.742L176.573 165.741ZM176.573 165.741V165.576H176.738V165.741H176.573ZM176.573 165.758L176.408 165.758V165.758L176.573 165.758ZM176.573 165.775H176.738V165.939H176.573V165.775ZM176.573 165.775L176.408 165.774L176.409 165.61H176.573V165.775ZM143.033 165.695C143.033 175.285 150.891 183.092 160.624 183.092V183.422C150.712 183.422 142.703 175.47 142.703 165.695H143.033ZM160.624 148.297C150.891 148.297 143.033 156.104 143.033 165.695H142.703C142.703 155.919 150.712 147.968 160.624 147.968V148.297ZM178.216 165.695C178.216 156.104 170.358 148.297 160.624 148.297V147.968C170.537 147.968 178.545 155.919 178.545 165.695H178.216ZM160.624 183.092C170.358 183.092 178.216 175.285 178.216 165.695H178.545C178.545 175.47 170.537 183.422 160.624 183.422V183.092ZM141.299 165.695C141.299 176.259 149.949 184.826 160.624 184.826V185.156C149.771 185.156 140.969 176.444 140.969 165.695H141.299ZM160.624 146.563C149.949 146.563 141.299 155.13 141.299 165.695H140.969C140.969 154.945 149.771 146.234 160.624 146.234V146.563ZM179.306 160.779C177.115 152.596 169.582 146.563 160.624 146.563V146.234C169.733 146.234 177.395 152.368 179.624 160.694L179.306 160.779ZM198.306 146.564C189.349 146.564 181.816 152.596 179.624 160.779L179.306 160.694C181.536 152.369 189.198 146.234 198.306 146.234V146.564ZM217.632 165.695C217.632 155.131 208.981 146.564 198.306 146.564V146.234C209.16 146.234 217.961 154.946 217.961 165.695H217.632ZM198.306 184.827C208.981 184.827 217.632 176.26 217.632 165.695H217.961C217.961 176.445 209.16 185.157 198.306 185.157V184.827ZM179.624 170.611C181.816 178.794 189.349 184.827 198.306 184.827V185.157C189.198 185.157 181.535 179.022 179.306 170.696L179.624 170.611ZM160.624 184.826C169.581 184.826 177.114 178.794 179.306 170.611L179.624 170.696C177.395 179.022 169.732 185.156 160.624 185.156V184.826ZM180.715 165.695C180.715 175.286 188.573 183.093 198.306 183.093V183.422C188.394 183.422 180.385 175.471 180.385 165.695H180.715ZM198.306 148.298C188.573 148.298 180.715 156.105 180.715 165.695H180.385C180.385 155.92 188.394 147.968 198.306 147.968V148.298ZM215.898 165.695C215.898 156.105 208.04 148.298 198.306 148.298V147.968C208.219 147.968 216.227 155.92 216.227 165.695H215.898ZM198.306 183.093C208.04 183.093 215.898 175.286 215.898 165.695H216.227C216.227 175.471 208.219 183.422 198.306 183.422V183.093ZM201.764 161.123C201.604 160.37 201.456 159.667 201.382 159.041C201.308 158.416 201.306 157.85 201.452 157.372C201.601 156.886 201.901 156.499 202.41 156.239C202.911 155.982 203.605 155.853 204.538 155.853V156.183C203.629 156.183 202.995 156.31 202.56 156.532C202.133 156.75 201.891 157.065 201.767 157.468C201.641 157.881 201.637 158.393 201.709 159.002C201.781 159.61 201.926 160.297 202.086 161.055L201.764 161.123ZM202.392 165.758C202.39 164.086 202.057 162.511 201.764 161.123L202.086 161.055C202.379 162.439 202.719 164.046 202.722 165.758L202.392 165.758ZM201.764 170.393C202.057 169.005 202.39 167.43 202.392 165.758L202.722 165.758C202.719 167.47 202.379 169.077 202.086 170.461L201.764 170.393ZM204.538 175.663C203.605 175.663 202.911 175.533 202.41 175.277C201.901 175.017 201.601 174.63 201.452 174.144C201.306 173.666 201.308 173.1 201.382 172.475C201.456 171.849 201.604 171.146 201.764 170.393L202.086 170.461C201.926 171.219 201.781 171.905 201.709 172.514C201.637 173.123 201.641 173.635 201.767 174.047C201.891 174.451 202.133 174.765 202.56 174.984C202.995 175.206 203.629 175.333 204.538 175.333V175.663ZM214.448 165.775C214.43 171.239 210 175.663 204.538 175.663V175.333C209.818 175.333 214.101 171.057 214.119 165.774L214.448 165.775ZM214.283 165.939H214.283V165.61H214.283V165.939ZM214.448 165.758L214.448 165.775L214.119 165.775L214.119 165.758L214.448 165.758ZM214.448 165.741L214.448 165.758L214.119 165.758L214.119 165.741L214.448 165.741ZM214.283 165.576H214.283V165.906H214.283V165.576ZM204.538 155.853C210 155.853 214.43 160.277 214.448 165.741L214.119 165.742C214.101 160.459 209.818 156.183 204.538 156.183V155.853ZM164.375 170.461C164.215 171.219 164.07 171.905 163.998 172.514C163.926 173.123 163.93 173.635 164.056 174.047C164.18 174.451 164.423 174.765 164.849 174.984C165.284 175.206 165.918 175.333 166.828 175.333V175.663C165.894 175.663 165.2 175.533 164.699 175.277C164.191 175.017 163.89 174.63 163.741 174.144C163.595 173.666 163.597 173.1 163.671 172.475C163.745 171.849 163.894 171.146 164.053 170.393L164.375 170.461ZM165.011 165.758C165.009 167.47 164.668 169.077 164.375 170.461L164.053 170.393C164.347 169.005 164.679 167.43 164.681 165.758L165.011 165.758ZM164.375 161.055C164.668 162.439 165.009 164.046 165.011 165.758L164.681 165.758C164.679 164.086 164.347 162.511 164.053 161.123L164.375 161.055ZM166.828 156.183C165.918 156.183 165.284 156.31 164.849 156.532C164.423 156.75 164.18 157.065 164.056 157.469C163.93 157.881 163.926 158.393 163.998 159.002C164.07 159.61 164.215 160.297 164.375 161.055L164.053 161.123C163.894 160.37 163.745 159.667 163.671 159.041C163.597 158.416 163.595 157.85 163.741 157.372C163.89 156.886 164.191 156.499 164.699 156.239C165.2 155.982 165.894 155.853 166.828 155.853V156.183ZM176.408 165.742C176.39 160.459 172.108 156.183 166.828 156.183V155.853C172.29 155.853 176.719 160.277 176.737 165.741L176.408 165.742ZM176.573 165.906H176.573V165.576H176.573V165.906ZM176.408 165.758C176.408 165.752 176.408 165.747 176.408 165.741H176.738C176.738 165.747 176.738 165.753 176.738 165.758L176.408 165.758ZM176.408 165.775C176.408 165.769 176.408 165.764 176.408 165.758L176.738 165.758C176.738 165.763 176.738 165.769 176.738 165.775H176.408ZM176.573 165.61H176.573V165.939H176.573V165.61ZM166.828 175.333C172.108 175.333 176.39 171.057 176.408 165.774L176.737 165.775C176.719 171.239 172.29 175.663 166.828 175.663V175.333Z" fill="black" mask="url(#path-24-outside-2)"/>
        <path d="M154.516 181.929C154.516 176.246 159.124 171.638 164.807 171.638H178.452V192.22H164.807C159.124 192.22 154.516 187.613 154.516 181.929Z" fill="white" stroke="#0B0B0B" stroke-width="1.97727"/>
        <path d="M223.165 140.131C223.198 139.182 222.456 138.385 221.506 138.351L190.917 137.273C188.84 137.2 187.057 138.616 186.596 140.563L221.385 141.789C222.335 141.823 223.131 141.08 223.165 140.131Z" fill="#0B0B0B" stroke="#0B0B0B" stroke-width="1.69161"/>
        <path d="M141.507 140.131C141.474 139.182 142.216 138.385 143.165 138.351L173.755 137.274C175.831 137.201 177.615 138.617 178.076 140.564L143.286 141.789C142.337 141.823 141.54 141.08 141.507 140.131Z" fill="#0B0B0B" stroke="#0B0B0B" stroke-width="1.69161"/>
        <path d="M230.997 126.172H161.33C154.442 126.172 149.894 119.123 153.815 113.46C161.735 102.021 175.074 90.0034 195.597 90.0034C233.744 90.0035 245.951 89.4383 256.937 102.719C267.042 114.934 275.129 174.087 271.512 200.099C271.375 201.079 270.793 201.913 269.946 202.424L243.824 218.182C238.187 221.583 230.997 217.523 230.997 210.94V126.172Z" fill="#0B0B0B" stroke="#0B0B0B" stroke-width="0.563871"/>
        <ellipse cx="193.242" cy="109.457" rx="0.844988" ry="0.281936" fill="#0B0B0B"/>
        <ellipse cx="198.312" cy="110.585" rx="0.844988" ry="0.281936" fill="#0B0B0B"/>
        <ellipse cx="195.496" cy="107.201" rx="0.844988" ry="0.281936" fill="#0B0B0B"/>
        <ellipse cx="193.805" cy="112.841" rx="0.84499" ry="0.281936" fill="#0B0B0B"/>
        <ellipse cx="205.636" cy="107.765" rx="0.844988" ry="0.281936" fill="#0B0B0B"/>
        <ellipse cx="202.256" cy="106.074" rx="0.844988" ry="0.281936" fill="#0B0B0B"/>
        <ellipse cx="208.452" cy="112.277" rx="0.844988" ry="0.281936" fill="#0B0B0B"/>
        <ellipse cx="214.085" cy="111.713" rx="0.84499" ry="0.281936" fill="#0B0B0B"/>
        <ellipse cx="213.522" cy="108.329" rx="0.84499" ry="0.281936" fill="#0B0B0B"/>
        <ellipse cx="217.465" cy="107.201" rx="0.84499" ry="0.281936" fill="#0B0B0B"/>
        <ellipse cx="209.015" cy="106.637" rx="0.844988" ry="0.281936" fill="#0B0B0B"/>
        <ellipse cx="218.029" cy="110.021" rx="0.84499" ry="0.281936" fill="#0B0B0B"/>
        <ellipse cx="218.029" cy="112.841" rx="0.84499" ry="0.281936" fill="#0B0B0B"/>
        <ellipse cx="224.225" cy="115.097" rx="0.84499" ry="0.281936" fill="#0B0B0B"/>
        <ellipse cx="227.605" cy="112.841" rx="0.84499" ry="0.281936" fill="#0B0B0B"/>
        <ellipse cx="227.042" cy="110.585" rx="0.84499" ry="0.281936" fill="#0B0B0B"/>
        <ellipse cx="229.859" cy="115.661" rx="0.844994" ry="0.281936" fill="#0B0B0B"/>
        <ellipse cx="232.675" cy="113.405" rx="0.84499" ry="0.281936" fill="#0B0B0B"/>
        <ellipse cx="222.535" cy="111.713" rx="0.84499" ry="0.281936" fill="#0B0B0B"/>
        <ellipse cx="221.972" cy="108.893" rx="0.84499" ry="0.281936" fill="#0B0B0B"/>
        <ellipse cx="209.579" cy="109.457" rx="0.844986" ry="0.281936" fill="#0B0B0B"/>
        <ellipse cx="204.509" cy="111.149" rx="0.844988" ry="0.281936" fill="#0B0B0B"/>
        <ellipse cx="201.129" cy="112.841" rx="0.84499" ry="0.281936" fill="#0B0B0B"/>
        <ellipse cx="200.002" cy="108.329" rx="0.844986" ry="0.281936" fill="#0B0B0B"/>
        <ellipse cx="187.61" cy="112.277" rx="0.844988" ry="0.281936" fill="#0B0B0B"/>
        <path d="M227.389 217.659L218.232 219.243C215.861 219.654 213.436 219.654 211.065 219.243L201.908 217.659C197.111 216.829 193.606 212.662 193.606 207.787C193.606 200.306 201.641 195.479 208.329 198.951C212.269 200.996 217.027 200.996 220.968 198.951C227.656 195.479 235.691 200.306 235.691 207.787C235.691 212.662 232.186 216.829 227.389 217.659ZM209.183 197.303C201.289 193.205 191.751 198.882 191.751 207.787C191.751 213.565 195.905 218.504 201.592 219.488L210.749 221.073C213.329 221.519 215.967 221.519 218.548 221.073L227.705 219.488C233.392 218.504 237.545 213.565 237.545 207.787C237.545 198.882 228.008 193.205 220.114 197.303C216.709 199.07 212.588 199.07 209.183 197.303Z" fill="#0B0B0B" stroke="black" stroke-width="0.164773"/>
        <path d="M202.819 206.719C202.819 206.719 207.607 210.102 215.212 210.102C222.817 210.102 227.605 206.719 227.605 206.719" stroke="#0B0B0B" stroke-width="1.97727" stroke-linecap="round"/>
        <path d="M248.964 123.879C250.368 125.113 250.963 127.265 250.509 129.989C250.058 132.694 248.587 135.78 246.149 138.553C243.711 141.326 240.839 143.18 238.214 143.973C235.569 144.772 233.36 144.457 231.956 143.223C230.552 141.988 229.956 139.837 230.41 137.112C230.861 134.407 232.332 131.321 234.77 128.548C237.209 125.775 240.081 123.921 242.706 123.128C245.35 122.329 247.56 122.644 248.964 123.879Z" fill="#00B15C" stroke="black" stroke-width="2.27273"/>
        <path d="M233.054 111C234.458 112.235 235.054 114.386 234.6 117.111C234.149 119.816 232.678 122.901 230.24 125.674C227.802 128.447 224.93 130.301 222.304 131.094C219.66 131.893 217.45 131.578 216.046 130.344C214.642 129.109 214.047 126.958 214.501 124.233C214.952 121.528 216.423 118.442 218.861 115.67C221.299 112.897 224.171 111.043 226.796 110.249C229.441 109.451 231.65 109.766 233.054 111Z" fill="#00B15C" stroke="black" stroke-width="2.27273"/>
        <circle cx="232.238" cy="127.121" r="5.68182" fill="#00B15C" stroke="black" stroke-width="2.27273"/>
    </g>
    <defs>
        <clipPath id="clip0">
            <rect width="128.571" height="240" fill="white"/>
        </clipPath>
        <clipPath id="clip1">
            <rect width="131.818" height="150" fill="white" transform="translate(140.571 90)"/>
        </clipPath>
    </defs>
</svg>
