<svg width="137" height="196" viewBox="0 0 137 196" fill="none" xmlns="http://www.w3.org/2000/svg">
    <g clip-path="url(#clip0)">
        <path d="M16.1335 50.0134C16.1335 22.9717 38.0552 1.04997 65.0969 1.04997C92.1387 1.04997 114.06 22.9716 114.06 50.0134V197.557H16.1335V50.0134Z" fill="white" stroke="#0B0B0B" stroke-width="2.1"/>
        <ellipse cx="21.5114" cy="57.9945" rx="17.5148" ry="16.9962" fill="white"/>
        <ellipse cx="57.072" cy="57.9952" rx="17.5148" ry="16.9962" fill="white"/>
        <mask id="path-4-outside-1" maskUnits="userSpaceOnUse" x="2.99854" y="38.9368" width="74" height="38" fill="black">
            <rect fill="white" x="2.99854" y="38.9368" width="74" height="38"/>
            <path fill-rule="evenodd" clip-rule="evenodd" d="M58.4997 74.613C67.4466 74.282 74.5697 67.0042 74.5697 58.1091C74.5697 55.3989 73.9084 52.8388 72.7358 50.5796L72.2885 53.3758C71.7064 57.0146 69.4233 60.1565 66.1431 61.8327L65.2025 62.3134C61.7909 64.0567 59.4667 67.3799 58.9986 71.1838L58.6105 74.3374C58.5977 74.441 58.5582 74.5349 58.4997 74.613ZM47.3057 70.9103C43.5503 67.879 41.1563 63.2658 41.1563 58.1091C41.1563 49.0041 48.6198 41.5935 57.863 41.5935C59.3588 41.5935 60.808 41.7876 62.1865 42.1515C62.178 42.1792 62.1713 42.2081 62.1668 42.238L61.1765 48.8081C60.6218 52.4883 58.328 55.6749 55.0151 57.3678L54.0678 57.8519C50.6922 59.5768 48.3789 62.8499 47.8784 66.6088L47.3057 70.9103ZM57.863 76.2815C68.0049 76.2815 76.2265 68.1455 76.2265 58.1091C76.2265 48.0728 68.0049 39.9368 57.863 39.9368C49.3536 39.9368 42.1961 45.6643 40.1123 53.4363C38.0281 45.665 30.8709 39.938 22.362 39.938C12.2201 39.938 3.99854 48.074 3.99854 58.1103C3.99854 68.1467 12.2201 76.2827 22.362 76.2827C30.8713 76.2827 38.0289 70.5551 40.1127 62.7832C42.1969 70.5545 49.3541 76.2815 57.863 76.2815ZM23.9258 74.5547C32.4327 73.7748 39.0687 66.6959 39.0687 58.1103C39.0687 55.9344 38.6425 53.8552 37.8675 51.9508L37.6004 53.6209C37.0183 57.2597 34.7352 60.4015 31.455 62.0778L30.5144 62.5584C27.1028 64.3018 24.7786 67.6249 24.3105 71.4289L23.9258 74.5547ZM12.5763 71.4982C8.38025 68.495 5.65528 63.612 5.65528 58.1103C5.65528 49.0053 13.1187 41.5947 22.362 41.5947C24.1557 41.5947 25.8823 41.8738 27.5004 42.3901C27.4909 42.4198 27.4836 42.4508 27.4787 42.483L26.4884 49.0532C25.9337 52.7333 23.6399 55.9199 20.327 57.6128L19.3797 58.0969C16.0041 59.8219 13.6907 63.0949 13.1903 66.8539L12.5813 71.4278C12.5782 71.4513 12.5765 71.4749 12.5763 71.4982Z"/>
        </mask>
        <path fill-rule="evenodd" clip-rule="evenodd" d="M58.4997 74.613C67.4466 74.282 74.5697 67.0042 74.5697 58.1091C74.5697 55.3989 73.9084 52.8388 72.7358 50.5796L72.2885 53.3758C71.7064 57.0146 69.4233 60.1565 66.1431 61.8327L65.2025 62.3134C61.7909 64.0567 59.4667 67.3799 58.9986 71.1838L58.6105 74.3374C58.5977 74.441 58.5582 74.5349 58.4997 74.613ZM47.3057 70.9103C43.5503 67.879 41.1563 63.2658 41.1563 58.1091C41.1563 49.0041 48.6198 41.5935 57.863 41.5935C59.3588 41.5935 60.808 41.7876 62.1865 42.1515C62.178 42.1792 62.1713 42.2081 62.1668 42.238L61.1765 48.8081C60.6218 52.4883 58.328 55.6749 55.0151 57.3678L54.0678 57.8519C50.6922 59.5768 48.3789 62.8499 47.8784 66.6088L47.3057 70.9103ZM57.863 76.2815C68.0049 76.2815 76.2265 68.1455 76.2265 58.1091C76.2265 48.0728 68.0049 39.9368 57.863 39.9368C49.3536 39.9368 42.1961 45.6643 40.1123 53.4363C38.0281 45.665 30.8709 39.938 22.362 39.938C12.2201 39.938 3.99854 48.074 3.99854 58.1103C3.99854 68.1467 12.2201 76.2827 22.362 76.2827C30.8713 76.2827 38.0289 70.5551 40.1127 62.7832C42.1969 70.5545 49.3541 76.2815 57.863 76.2815ZM23.9258 74.5547C32.4327 73.7748 39.0687 66.6959 39.0687 58.1103C39.0687 55.9344 38.6425 53.8552 37.8675 51.9508L37.6004 53.6209C37.0183 57.2597 34.7352 60.4015 31.455 62.0778L30.5144 62.5584C27.1028 64.3018 24.7786 67.6249 24.3105 71.4289L23.9258 74.5547ZM12.5763 71.4982C8.38025 68.495 5.65528 63.612 5.65528 58.1103C5.65528 49.0053 13.1187 41.5947 22.362 41.5947C24.1557 41.5947 25.8823 41.8738 27.5004 42.3901C27.4909 42.4198 27.4836 42.4508 27.4787 42.483L26.4884 49.0532C25.9337 52.7333 23.6399 55.9199 20.327 57.6128L19.3797 58.0969C16.0041 59.8219 13.6907 63.0949 13.1903 66.8539L12.5813 71.4278C12.5782 71.4513 12.5765 71.4749 12.5763 71.4982Z" fill="#0B0B0B"/>
        <path d="M58.4997 74.613L58.3597 74.508L58.1396 74.8014L58.5061 74.7879L58.4997 74.613ZM72.7358 50.5796L72.8911 50.499L72.6467 50.0282L72.563 50.5519L72.7358 50.5796ZM72.2885 53.3758L72.4613 53.4035L72.2885 53.3758ZM66.1431 61.8327L66.2227 61.9886L66.1431 61.8327ZM65.2025 62.3134L65.1229 62.1575L65.2025 62.3134ZM58.9986 71.1838L59.1723 71.2052L58.9986 71.1838ZM58.6105 74.3374L58.4368 74.3161L58.6105 74.3374ZM47.3057 70.9103L47.1958 71.0465L47.4381 71.242L47.4792 70.9334L47.3057 70.9103ZM62.1865 42.1515L62.3537 42.2031L62.4076 42.0289L62.2312 41.9823L62.1865 42.1515ZM62.1668 42.238L61.9938 42.2119V42.2119L62.1668 42.238ZM61.1765 48.8081L61.0034 48.782L61.1765 48.8081ZM55.0151 57.3678L55.0947 57.5236L55.0151 57.3678ZM54.0678 57.8519L53.9881 57.6961L54.0678 57.8519ZM47.8784 66.6088L47.7049 66.5857L47.8784 66.6088ZM40.1123 53.4363L39.9433 53.4816L40.1124 54.112L40.2814 53.4816L40.1123 53.4363ZM40.1127 62.7832L40.2817 62.7379L40.1126 62.1075L39.9436 62.7379L40.1127 62.7832ZM23.9258 74.5547L23.7521 74.5333L23.7256 74.7487L23.9418 74.7289L23.9258 74.5547ZM37.8675 51.9508L38.0296 51.8849L37.7936 51.3049L37.6947 51.9232L37.8675 51.9508ZM37.6004 53.6209L37.4276 53.5932V53.5932L37.6004 53.6209ZM31.455 62.0778L31.3753 61.9219L31.455 62.0778ZM30.5144 62.5584L30.594 62.7142L30.5144 62.5584ZM24.3105 71.4289L24.4841 71.4502L24.3105 71.4289ZM12.5763 71.4982L12.4744 71.6406L12.7479 71.8362L12.7513 71.5L12.5763 71.4982ZM27.5004 42.3901L27.667 42.4437L27.7208 42.2767L27.5536 42.2234L27.5004 42.3901ZM27.4787 42.483L27.3057 42.4569L27.3057 42.4569L27.4787 42.483ZM26.4884 49.0532L26.3153 49.0271L26.4884 49.0532ZM20.327 57.6128L20.2474 57.457L20.327 57.6128ZM19.3797 58.0969L19.4593 58.2528L19.3797 58.0969ZM13.1903 66.8539L13.0168 66.8308L13.1903 66.8539ZM12.5813 71.4278L12.7548 71.4508V71.4508L12.5813 71.4278ZM74.3947 58.1091C74.3947 66.9081 67.348 74.1105 58.4932 74.4381L58.5061 74.7879C67.5452 74.4535 74.7447 67.1002 74.7447 58.1091H74.3947ZM72.5804 50.6602C73.7405 52.8952 74.3947 55.4277 74.3947 58.1091H74.7447C74.7447 55.3701 74.0763 52.7824 72.8911 50.499L72.5804 50.6602ZM72.4613 53.4035L72.9086 50.6072L72.563 50.5519L72.1157 53.3482L72.4613 53.4035ZM66.2227 61.9886C69.5527 60.2869 71.8704 57.0974 72.4613 53.4035L72.1157 53.3482C71.5425 56.9319 69.294 60.0261 66.0634 61.6769L66.2227 61.9886ZM65.2821 62.4692L66.2227 61.9886L66.0634 61.6769L65.1229 62.1575L65.2821 62.4692ZM59.1723 71.2052C59.6333 67.4589 61.9223 64.1861 65.2821 62.4692L65.1229 62.1575C61.6595 63.9273 59.3001 67.3009 58.8249 71.1624L59.1723 71.2052ZM58.7842 74.3588L59.1723 71.2052L58.8249 71.1624L58.4368 74.3161L58.7842 74.3588ZM58.6397 74.718C58.7161 74.6161 58.7676 74.4935 58.7842 74.3588L58.4368 74.3161C58.4279 74.3885 58.4004 74.4537 58.3597 74.508L58.6397 74.718ZM47.4156 70.7741C43.6993 67.7744 41.3313 63.2103 41.3313 58.1091H40.9813C40.9813 63.3214 43.4013 67.9837 47.1958 71.0465L47.4156 70.7741ZM41.3313 58.1091C41.3313 49.1024 48.7147 41.7685 57.863 41.7685V41.4185C48.5248 41.4185 40.9813 48.9058 40.9813 58.1091H41.3313ZM57.863 41.7685C59.3436 41.7685 60.7778 41.9606 62.1419 42.3207L62.2312 41.9823C60.8382 41.6146 59.374 41.4185 57.863 41.4185V41.7685ZM62.0193 42.0998C62.0082 42.1359 61.9996 42.1733 61.9938 42.2119L62.3399 42.264C62.3431 42.2428 62.3478 42.2225 62.3537 42.2031L62.0193 42.0998ZM61.9938 42.2119L61.0034 48.782L61.3495 48.8342L62.3399 42.264L61.9938 42.2119ZM61.0034 48.782C60.4571 52.4065 58.1982 55.5447 54.9355 57.212L55.0947 57.5236C58.4579 55.805 60.7864 52.5701 61.3495 48.8342L61.0034 48.782ZM54.9355 57.212L53.9881 57.6961L54.1474 58.0077L55.0947 57.5236L54.9355 57.212ZM53.9881 57.6961C50.5614 59.4472 48.213 62.7698 47.7049 66.5857L48.0519 66.6319C48.5448 62.9299 50.8231 59.7065 54.1474 58.0077L53.9881 57.6961ZM47.7049 66.5857L47.1323 70.8872L47.4792 70.9334L48.0519 66.6319L47.7049 66.5857ZM76.0515 58.1091C76.0515 68.0471 67.9099 76.1065 57.863 76.1065V76.4565C68.0998 76.4565 76.4015 68.2438 76.4015 58.1091H76.0515ZM57.863 40.1118C67.9099 40.1118 76.0515 48.1712 76.0515 58.1091H76.4015C76.4015 47.9744 68.0998 39.7618 57.863 39.7618V40.1118ZM40.2814 53.4816C42.3449 45.7853 49.4337 40.1118 57.863 40.1118V39.7618C49.2736 39.7618 42.0474 45.5434 39.9433 53.391L40.2814 53.4816ZM22.362 40.113C30.7908 40.113 37.8794 45.7859 39.9433 53.4816L40.2814 53.391C38.1769 45.544 30.951 39.763 22.362 39.763V40.113ZM4.17354 58.1103C4.17354 48.1724 12.3151 40.113 22.362 40.113V39.763C12.1252 39.763 3.82354 47.9756 3.82354 58.1103H4.17354ZM22.362 76.1077C12.3151 76.1077 4.17354 68.0483 4.17354 58.1103H3.82354C3.82354 68.245 12.1252 76.4577 22.362 76.4577V76.1077ZM39.9436 62.7379C37.8801 70.4342 30.7913 76.1077 22.362 76.1077V76.4577C30.9514 76.4577 38.1776 70.6761 40.2817 62.8285L39.9436 62.7379ZM57.863 76.1065C49.4342 76.1065 42.3456 70.4335 40.2817 62.7379L39.9436 62.8285C42.0481 70.6755 49.274 76.4565 57.863 76.4565V76.1065ZM38.8937 58.1103C38.8937 66.6031 32.3289 73.6086 23.9098 74.3804L23.9418 74.7289C32.5364 73.941 39.2437 66.7886 39.2437 58.1103H38.8937ZM37.7054 52.0168C38.472 53.9006 38.8937 55.9574 38.8937 58.1103H39.2437C39.2437 55.9114 38.8129 53.8098 38.0296 51.8849L37.7054 52.0168ZM37.7732 53.6485L38.0403 51.9785L37.6947 51.9232L37.4276 53.5932L37.7732 53.6485ZM31.5346 62.2336C34.8646 60.5319 37.1823 57.3424 37.7732 53.6485L37.4276 53.5932C36.8543 57.1769 34.6058 60.2711 31.3753 61.9219L31.5346 62.2336ZM30.594 62.7142L31.5346 62.2336L31.3753 61.9219L30.4347 62.4026L30.594 62.7142ZM24.4841 71.4502C24.9452 67.7039 27.2342 64.4312 30.594 62.7142L30.4347 62.4026C26.9714 64.1724 24.612 67.5459 24.1368 71.4075L24.4841 71.4502ZM24.0995 74.576L24.4841 71.4502L24.1368 71.4075L23.7521 74.5333L24.0995 74.576ZM12.6782 71.3559C8.52565 68.3838 5.83028 63.5527 5.83028 58.1103H5.48028C5.48028 63.6713 8.23485 68.6061 12.4744 71.6406L12.6782 71.3559ZM5.83028 58.1103C5.83028 49.1036 13.2137 41.7697 22.362 41.7697V41.4197C13.0238 41.4197 5.48028 48.907 5.48028 58.1103H5.83028ZM22.362 41.7697C24.1374 41.7697 25.8462 42.0459 27.4472 42.5568L27.5536 42.2234C25.9185 41.7016 24.1739 41.4197 22.362 41.4197V41.7697ZM27.3339 42.3365C27.3214 42.3752 27.3119 42.4154 27.3057 42.4569L27.6518 42.5091C27.6552 42.4862 27.6604 42.4644 27.667 42.4437L27.3339 42.3365ZM27.3057 42.4569L26.3153 49.0271L26.6614 49.0793L27.6518 42.5091L27.3057 42.4569ZM26.3153 49.0271C25.769 52.6515 23.51 55.7898 20.2474 57.457L20.4066 57.7687C23.7698 56.0501 26.0983 52.8152 26.6614 49.0793L26.3153 49.0271ZM20.2474 57.457L19.3 57.9411L19.4593 58.2528L20.4066 57.7687L20.2474 57.457ZM19.3 57.9411C15.8733 59.6922 13.5249 63.0149 13.0168 66.8308L13.3638 66.877C13.8566 63.1749 16.1349 59.9515 19.4593 58.2528L19.3 57.9411ZM13.0168 66.8308L12.4079 71.4047L12.7548 71.4508L13.3638 66.877L13.0168 66.8308ZM12.4079 71.4047C12.4038 71.4354 12.4016 71.466 12.4013 71.4965L12.7513 71.5C12.7515 71.4837 12.7526 71.4673 12.7548 71.4508L12.4079 71.4047Z" fill="black" mask="url(#path-4-outside-1)"/>
        <path d="M5.01924 73.4763C5.01924 68.1895 9.30505 63.9037 14.5919 63.9037H39.0104V83.049H14.5919C9.30504 83.049 5.01924 78.7631 5.01924 73.4763Z" fill="white" stroke="#0B0B0B" stroke-width="2.1"/>
        <path d="M1.07933 20.299C1.06569 17.2123 3.55695 14.6989 6.64371 14.6853L22.8173 14.6138C29.217 14.5856 34.4902 19.4787 35.0504 25.7382L6.69311 25.8634C3.60635 25.8771 1.09297 23.3858 1.07933 20.299Z" fill="#0B0B0B" stroke="#0B0B0B" stroke-width="2.1"/>
        <path d="M6.15347 108.466C6.69179 102.204 11.9478 97.293 18.3476 97.2989L46.0017 97.3245C52.4015 97.3304 57.6485 102.252 58.1752 108.514L6.15347 108.466Z" fill="#0B0B0B" stroke="#0B0B0B" stroke-width="2.1"/>
        <path d="M83.7029 27.8899C83.8257 24.8056 81.4248 22.2056 78.3405 22.0826L62.1795 21.4386C55.7848 21.1838 50.342 25.8871 49.5608 32.1228L77.896 33.2521C80.9803 33.375 83.5802 30.9743 83.7029 27.8899Z" fill="#0B0B0B" stroke="#0B0B0B" stroke-width="2.1"/>
        <path d="M16.3804 156.532C16.3804 156.532 17.9673 160.969 54.4672 160.969C90.9671 160.969 113.978 152.096 113.978 152.096" stroke="#0B0B0B" stroke-width="2.1" stroke-linecap="round"/>
        <path d="M16.2036 180.687C16.2036 180.687 17.7959 184.936 54.4178 184.936C91.0397 184.936 113.977 176.325 113.977 176.325" stroke="#0B0B0B" stroke-width="2.1" stroke-linecap="round"/>
        <path d="M16.2036 167.94C16.2036 167.94 17.7959 172.189 54.4178 172.189C91.0397 172.189 113.977 163.699 113.977 163.699" stroke="#0B0B0B" stroke-width="2.1" stroke-linecap="round"/>
        <path d="M16.2036 166.877C16.2036 166.877 17.7959 171.126 54.4178 171.126C91.0397 171.126 113.977 162.675 113.977 162.675" stroke="#0B0B0B" stroke-width="2.1" stroke-linecap="round"/>
        <path d="M17.0625 169.929C17.0625 169.929 18.6273 174.026 54.6166 174.026C90.606 174.026 113.295 165.832 113.295 165.832" stroke="#0B0B0B" stroke-width="2.1" stroke-linecap="round"/>
        <line x1="1.05" y1="-1.05" x2="41.3656" y2="-1.05" transform="matrix(0.922703 -0.385513 0.385047 0.922897 75.6479 59.5886)" stroke="#0B0B0B" stroke-width="2.1" stroke-linecap="round"/>
        <ellipse cx="52.5603" cy="5.14768" rx="0.796105" ry="0.265505" fill="#0B0B0B"/>
        <ellipse cx="57.3371" cy="6.20996" rx="0.7961" ry="0.265506" fill="#0B0B0B"/>
        <ellipse cx="54.6828" cy="3.02317" rx="0.796105" ry="0.265505" fill="#0B0B0B"/>
        <ellipse cx="53.0915" cy="8.33454" rx="0.796105" ry="0.265506" fill="#0B0B0B"/>
        <ellipse cx="64.237" cy="3.5542" rx="0.796105" ry="0.265505" fill="#0B0B0B"/>
        <ellipse cx="61.052" cy="1.96091" rx="0.796102" ry="0.265505" fill="#0B0B0B"/>
        <ellipse cx="66.8908" cy="7.80332" rx="0.796105" ry="0.265505" fill="#0B0B0B"/>
        <ellipse cx="72.1984" cy="7.2721" rx="0.796097" ry="0.265505" fill="#0B0B0B"/>
        <ellipse cx="71.6677" cy="4.08551" rx="0.7961" ry="0.265505" fill="#0B0B0B"/>
        <ellipse cx="75.3825" cy="3.02317" rx="0.796102" ry="0.265505" fill="#0B0B0B"/>
        <ellipse cx="67.4211" cy="2.49195" rx="0.796105" ry="0.265506" fill="#0B0B0B"/>
        <ellipse cx="75.9133" cy="5.67874" rx="0.796102" ry="0.265506" fill="#0B0B0B"/>
        <ellipse cx="75.9133" cy="8.33454" rx="0.796102" ry="0.265506" fill="#0B0B0B"/>
        <ellipse cx="81.7517" cy="10.4589" rx="0.796102" ry="0.265505" fill="#0B0B0B"/>
        <ellipse cx="84.9357" cy="8.33454" rx="0.7961" ry="0.265506" fill="#0B0B0B"/>
        <ellipse cx="84.4055" cy="6.20996" rx="0.796102" ry="0.265506" fill="#0B0B0B"/>
        <ellipse cx="87.0593" cy="10.9902" rx="0.796102" ry="0.265505" fill="#0B0B0B"/>
        <ellipse cx="89.7126" cy="8.86566" rx="0.796097" ry="0.265505" fill="#0B0B0B"/>
        <ellipse cx="80.1589" cy="7.2721" rx="0.796105" ry="0.265505" fill="#0B0B0B"/>
        <ellipse cx="79.6286" cy="4.61655" rx="0.7961" ry="0.265505" fill="#0B0B0B"/>
        <ellipse cx="67.9519" cy="5.14768" rx="0.796105" ry="0.265505" fill="#0B0B0B"/>
        <ellipse cx="63.1755" cy="6.74097" rx="0.796105" ry="0.265506" fill="#0B0B0B"/>
        <ellipse cx="59.9904" cy="8.33454" rx="0.796105" ry="0.265506" fill="#0B0B0B"/>
        <ellipse cx="58.9294" cy="4.08551" rx="0.796105" ry="0.265505" fill="#0B0B0B"/>
        <ellipse cx="47.2526" cy="7.80332" rx="0.796102" ry="0.265505" fill="#0B0B0B"/>
        <path d="M116.42 92.6928C127.251 92.6928 135.45 82.0461 135.45 68.321C135.45 54.6684 126.305 43.9493 115.416 43.9493H113.069L104.299 89.2717C103.955 91.0456 105.314 92.6928 107.121 92.6928H116.42Z" fill="#00B15C" stroke="#0B0B0B" stroke-width="2.1"/>
        <path d="M110.213 92.9483C110.213 92.9483 105.278 103.908 86.0653 121.32C66.8527 138.733 50.7628 139.382 50.7628 139.382" stroke="black" stroke-width="2.1"/>
        <ellipse cx="48.513" cy="139.577" rx="3.26254" ry="3.26487" fill="#0B0B0B"/>
    </g>
    <defs>
        <clipPath id="clip0">
            <rect width="136.5" height="196" fill="white"/>
        </clipPath>
    </defs>
</svg>
