<svg width="218" height="196" viewBox="0 0 218 196" fill="none" xmlns="http://www.w3.org/2000/svg">
    <g clip-path="url(#clip0)">
        <path d="M70.4336 1.06201V41.8979L77.8134 44.5325L87.8289 50.0651L94.6816 57.4419L100.48 65.6091L99.6893 50.8555L98.6351 40.3172L95.4723 29.252L91.7824 22.4021L86.7746 15.5522L80.7126 9.22919L70.4336 1.06201Z" fill="#00B15C" stroke="black" stroke-width="0.52713"/>
        <path d="M17.1638 84.702C17.1638 60.7367 36.5915 41.3089 60.5569 41.3089C84.5222 41.3089 103.95 60.7366 103.95 84.702V197.283H17.1638V84.702Z" fill="white" stroke="#0B0B0B" stroke-width="2.1"/>
        <ellipse cx="23.2067" cy="94.207" rx="15.6286" ry="15.1488" fill="white"/>
        <ellipse cx="54.9367" cy="94.2066" rx="15.6286" ry="15.1488" fill="white"/>
        <mask id="path-5-outside-1" maskUnits="userSpaceOnUse" x="5.63037" y="77.1109" width="66" height="34" fill="black">
            <rect fill="white" x="5.63037" y="77.1109" width="66" height="34"/>
            <path fill-rule="evenodd" clip-rule="evenodd" d="M37.9455 94.3081C37.9455 102.433 31.2774 109.049 23.0162 109.049C14.755 109.049 8.08689 102.433 8.08689 94.3081C8.08689 93.7546 8.11783 93.2081 8.17811 92.6703H14.8825C14.9144 97.166 18.5702 100.801 23.0752 100.801C27.5802 100.801 31.236 97.166 31.2679 92.6703H37.8543C37.9146 93.2081 37.9455 93.7546 37.9455 94.3081ZM23.0162 79.5674C15.8337 79.5674 9.85547 84.568 8.41667 91.2138H37.6157C36.1769 84.568 30.1986 79.5674 23.0162 79.5674ZM38.8558 98.4707C36.9972 105.399 30.61 110.505 23.0162 110.505C13.9666 110.505 6.63037 103.254 6.63037 94.3081C6.63037 85.3626 13.9666 78.1109 23.0162 78.1109C30.61 78.1109 36.9973 83.2171 38.8558 90.1455C40.7144 83.2172 47.1017 78.111 54.6955 78.111C63.7451 78.111 71.0813 85.3627 71.0813 94.3082C71.0813 103.254 63.7451 110.505 54.6955 110.505C47.1017 110.505 40.7144 105.399 38.8558 98.4707ZM69.6248 94.3082C69.6248 102.433 62.9566 109.049 54.6955 109.049C46.4343 109.049 39.7662 102.433 39.7662 94.3082C39.7662 93.7547 39.7971 93.2082 39.8574 92.6703H46.6736C46.7055 97.166 50.3613 100.801 54.8663 100.801C59.3714 100.801 63.0271 97.166 63.059 92.6703H69.5335C69.5938 93.2082 69.6248 93.7547 69.6248 94.3082ZM69.295 91.2138H40.096C41.5348 84.5681 47.5131 79.5675 54.6955 79.5675C61.8779 79.5675 67.8561 84.5681 69.295 91.2138Z"/>
        </mask>
        <path fill-rule="evenodd" clip-rule="evenodd" d="M37.9455 94.3081C37.9455 102.433 31.2774 109.049 23.0162 109.049C14.755 109.049 8.08689 102.433 8.08689 94.3081C8.08689 93.7546 8.11783 93.2081 8.17811 92.6703H14.8825C14.9144 97.166 18.5702 100.801 23.0752 100.801C27.5802 100.801 31.236 97.166 31.2679 92.6703H37.8543C37.9146 93.2081 37.9455 93.7546 37.9455 94.3081ZM23.0162 79.5674C15.8337 79.5674 9.85547 84.568 8.41667 91.2138H37.6157C36.1769 84.568 30.1986 79.5674 23.0162 79.5674ZM38.8558 98.4707C36.9972 105.399 30.61 110.505 23.0162 110.505C13.9666 110.505 6.63037 103.254 6.63037 94.3081C6.63037 85.3626 13.9666 78.1109 23.0162 78.1109C30.61 78.1109 36.9973 83.2171 38.8558 90.1455C40.7144 83.2172 47.1017 78.111 54.6955 78.111C63.7451 78.111 71.0813 85.3627 71.0813 94.3082C71.0813 103.254 63.7451 110.505 54.6955 110.505C47.1017 110.505 40.7144 105.399 38.8558 98.4707ZM69.6248 94.3082C69.6248 102.433 62.9566 109.049 54.6955 109.049C46.4343 109.049 39.7662 102.433 39.7662 94.3082C39.7662 93.7547 39.7971 93.2082 39.8574 92.6703H46.6736C46.7055 97.166 50.3613 100.801 54.8663 100.801C59.3714 100.801 63.0271 97.166 63.059 92.6703H69.5335C69.5938 93.2082 69.6248 93.7547 69.6248 94.3082ZM69.295 91.2138H40.096C41.5348 84.5681 47.5131 79.5675 54.6955 79.5675C61.8779 79.5675 67.8561 84.5681 69.295 91.2138Z" fill="#0B0B0B"/>
        <path d="M8.17811 92.6703V92.4953H8.02162L8.0042 92.6508L8.17811 92.6703ZM14.8825 92.6703L15.0575 92.6691L15.0563 92.4953H14.8825V92.6703ZM31.2679 92.6703V92.4953H31.0941L31.0929 92.6691L31.2679 92.6703ZM37.8543 92.6703L38.0282 92.6508L38.0108 92.4953H37.8543V92.6703ZM8.41667 91.2138L8.24564 91.1767L8.19973 91.3888H8.41667V91.2138ZM37.6157 91.2138V91.3888H37.8327L37.7868 91.1767L37.6157 91.2138ZM38.8558 98.4707L39.0248 98.4254L38.8558 97.7953L38.6868 98.4254L38.8558 98.4707ZM38.8558 90.1455L38.6868 90.1908L38.8558 90.8209L39.0249 90.1908L38.8558 90.1455ZM39.8574 92.6703V92.4953H39.7009L39.6835 92.6508L39.8574 92.6703ZM46.6736 92.6703L46.8486 92.6691L46.8474 92.4953H46.6736V92.6703ZM63.059 92.6703V92.4953H62.8853L62.884 92.6691L63.059 92.6703ZM69.5335 92.6703L69.7075 92.6508L69.69 92.4953H69.5335V92.6703ZM40.096 91.2138L39.9249 91.1767L39.879 91.3888H40.096V91.2138ZM69.295 91.2138V91.3888H69.5119L69.466 91.1767L69.295 91.2138ZM23.0162 109.224C31.3722 109.224 38.1205 102.532 38.1205 94.3081H37.7705C37.7705 102.335 31.1826 108.874 23.0162 108.874V109.224ZM7.91189 94.3081C7.91189 102.532 14.6602 109.224 23.0162 109.224V108.874C14.8498 108.874 8.26189 102.335 8.26189 94.3081H7.91189ZM8.0042 92.6508C7.94319 93.1951 7.91189 93.7481 7.91189 94.3081H8.26189C8.26189 93.7611 8.29246 93.2212 8.35202 92.6898L8.0042 92.6508ZM14.8825 92.4953H8.17811V92.8453H14.8825V92.4953ZM14.7075 92.6715C14.7401 97.2634 18.474 100.976 23.0752 100.976V100.626C18.6664 100.626 15.0887 97.0686 15.0575 92.6691L14.7075 92.6715ZM23.0752 100.976C27.6764 100.976 31.4103 97.2634 31.4429 92.6715L31.0929 92.6691C31.0617 97.0686 27.4841 100.626 23.0752 100.626V100.976ZM37.8543 92.4953H31.2679V92.8453H37.8543V92.4953ZM38.1205 94.3081C38.1205 93.7481 38.0892 93.1951 38.0282 92.6508L37.6804 92.6898C37.7399 93.2212 37.7705 93.7611 37.7705 94.3081H38.1205ZM8.58771 91.2508C10.0092 84.6852 15.9165 79.7424 23.0162 79.7424V79.3924C15.7509 79.3924 9.70177 84.4509 8.24564 91.1767L8.58771 91.2508ZM37.6157 91.0388H8.41667V91.3888H37.6157V91.0388ZM23.0162 79.7424C30.1158 79.7424 36.0232 84.6852 37.4447 91.2508L37.7868 91.1767C36.3306 84.4509 30.2814 79.3924 23.0162 79.3924V79.7424ZM23.0162 110.68C30.6899 110.68 37.1459 105.52 39.0248 98.5161L38.6868 98.4254C36.8485 105.278 30.53 110.33 23.0162 110.33V110.68ZM6.45537 94.3081C6.45537 103.352 13.8718 110.68 23.0162 110.68V110.33C14.0613 110.33 6.80537 103.155 6.80537 94.3081H6.45537ZM23.0162 77.9359C13.8718 77.9359 6.45537 85.2641 6.45537 94.3081H6.80537C6.80537 85.4612 14.0613 78.2859 23.0162 78.2859V77.9359ZM39.0249 90.1002C37.146 83.096 30.6899 77.9359 23.0162 77.9359V78.2859C30.5301 78.2859 36.8486 83.3382 38.6868 90.1908L39.0249 90.1002ZM54.6955 77.936C47.0218 77.936 40.5657 83.0961 38.6868 90.1002L39.0249 90.1908C40.8631 83.3383 47.1816 78.286 54.6955 78.286V77.936ZM71.2563 94.3082C71.2563 85.2642 63.8398 77.936 54.6955 77.936V78.286C63.6504 78.286 70.9063 85.4613 70.9063 94.3082H71.2563ZM54.6955 110.68C63.8398 110.68 71.2563 103.352 71.2563 94.3082H70.9063C70.9063 103.155 63.6504 110.33 54.6955 110.33V110.68ZM38.6868 98.5161C40.5657 105.52 47.0217 110.68 54.6955 110.68V110.33C47.1816 110.33 40.8631 105.278 39.0248 98.4254L38.6868 98.5161ZM54.6955 109.224C63.0514 109.224 69.7998 102.532 69.7998 94.3082H69.4498C69.4498 102.335 62.8619 108.874 54.6955 108.874V109.224ZM39.5912 94.3082C39.5912 102.532 46.3395 109.224 54.6955 109.224V108.874C46.5291 108.874 39.9412 102.335 39.9412 94.3082H39.5912ZM39.6835 92.6508C39.6225 93.1951 39.5912 93.7481 39.5912 94.3082H39.9412C39.9412 93.7612 39.9718 93.2212 40.0313 92.6898L39.6835 92.6508ZM46.6736 92.4953H39.8574V92.8453H46.6736V92.4953ZM54.8663 100.626C50.4575 100.626 46.8798 97.0686 46.8486 92.6691L46.4986 92.6715C46.5312 97.2634 50.2651 100.976 54.8663 100.976V100.626ZM62.884 92.6691C62.8528 97.0686 59.2752 100.626 54.8663 100.626V100.976C59.4675 100.976 63.2014 97.2634 63.234 92.6715L62.884 92.6691ZM69.5335 92.4953H63.059V92.8453H69.5335V92.4953ZM69.7998 94.3082C69.7998 93.7481 69.7685 93.1951 69.7075 92.6508L69.3596 92.6898C69.4192 93.2212 69.4498 93.7612 69.4498 94.3082H69.7998ZM40.096 91.3888H69.295V91.0388H40.096V91.3888ZM54.6955 79.3925C47.4303 79.3925 41.3811 84.451 39.9249 91.1767L40.267 91.2508C41.6885 84.6852 47.5959 79.7425 54.6955 79.7425V79.3925ZM69.466 91.1767C68.0098 84.451 61.9607 79.3925 54.6955 79.3925V79.7425C61.7951 79.7425 67.7024 84.6852 69.1239 91.2508L69.466 91.1767Z" fill="black" mask="url(#path-5-outside-1)"/>
        <path d="M0.875 61.7787C0.875 58.9938 3.13261 56.7362 5.9175 56.7362H20.3694C26.1279 56.7362 30.8491 61.1772 31.2949 66.8212H5.9175C3.13261 66.8212 0.875 64.5636 0.875 61.7787Z" fill="#0B0B0B" stroke="#0B0B0B" stroke-width="1.75"/>
        <path d="M76.7944 70.7733C76.7944 67.9884 74.5368 65.7308 71.7519 65.7308H57.3001C51.5416 65.7308 46.8203 70.1718 46.3745 75.8158H71.7519C74.5368 75.8158 76.7944 73.5582 76.7944 70.7733Z" fill="#0B0B0B" stroke="#0B0B0B" stroke-width="1.75"/>
        <path d="M61.5669 137.473C61.5669 130.051 69.5292 125.317 76.1208 128.734C79.0033 130.228 82.4916 130.228 85.374 128.734C91.9657 125.317 99.928 130.051 99.928 137.473C99.928 142.289 96.4599 146.406 91.712 147.227L84.0141 148.557C81.8524 148.93 79.6425 148.93 77.4807 148.557L69.7828 147.227C65.035 146.406 61.5669 142.289 61.5669 137.473Z" fill="white"/>
        <path d="M91.4576 145.755L83.7598 147.085C81.7663 147.43 79.7285 147.43 77.7351 147.085L70.0372 145.755C66.0055 145.059 63.0606 141.563 63.0606 137.473C63.0606 131.196 69.8127 127.146 75.4333 130.059C78.7468 131.777 82.748 131.777 86.0616 130.059C91.6822 127.146 98.4343 131.196 98.4343 137.473C98.4343 141.563 95.4893 145.059 91.4576 145.755ZM76.1544 128.669C69.5154 125.228 61.494 129.995 61.494 137.473C61.494 142.325 64.9876 146.472 69.7704 147.299L77.4683 148.628C79.6383 149.003 81.8566 149.003 84.0266 148.628L91.7244 147.299C96.5072 146.472 100.001 142.325 100.001 137.473C100.001 129.995 91.9795 125.228 85.3405 128.669C82.4791 130.152 79.0158 130.152 76.1544 128.669Z" fill="#0B0B0B" stroke="black" stroke-width="0.145833"/>
        <path d="M70.8022 136.576C70.8022 136.576 74.8278 139.416 81.2213 139.416C87.6148 139.416 91.6404 136.576 91.6404 136.576" stroke="#0B0B0B" stroke-width="1.75" stroke-linecap="round"/>
        <path d="M40.0186 176.342C40.0186 176.342 42.6233 179.892 50.6744 179.892C58.7255 179.892 61.3303 176.342 61.3303 176.342" stroke="#0B0B0B" stroke-width="1.75" stroke-linecap="round"/>
        <path d="M40.2554 179.892C40.2554 179.892 42.8601 183.443 50.9112 183.443C58.9623 183.443 61.5671 179.892 61.5671 179.892" stroke="#0B0B0B" stroke-width="1.75" stroke-linecap="round"/>
        <path d="M22.8046 118.35C22.8046 121.265 20.4403 123.629 17.5229 123.629C14.6056 123.629 12.2412 121.265 12.2412 118.35C12.2412 115.435 14.6056 113.071 17.5229 113.071C20.4403 113.071 22.8046 115.435 22.8046 118.35Z" stroke="#00B15C" stroke-width="1.75"/>
        <path d="M7.97852 107.462C7.97852 102.716 11.8257 98.8688 16.5715 98.8688H38.4329V116.055H16.5715C11.8257 116.055 7.97852 112.208 7.97852 107.462Z" fill="white" stroke="#0B0B0B" stroke-width="1.75"/>
        <path d="M49.1816 0.947221C49.1816 0.907349 49.214 0.875031 49.2538 0.875031H69.6184C69.6582 0.875031 69.6905 0.90735 69.6905 0.947218V42.1293C69.6905 42.1372 69.6895 42.1428 69.6886 42.1463C68.454 42.8973 64.4739 45.0448 59.4361 45.0448C54.3983 45.0448 50.4181 42.8973 49.1836 42.1463C49.1827 42.1428 49.1816 42.1372 49.1816 42.1293V0.947221Z" fill="#00B15C" stroke="#0B0B0B" stroke-width="1.75"/>
        <path d="M70.4894 0.356347C70.0888 0.086044 69.545 0.191656 69.2747 0.592238C69.0044 0.99282 69.11 1.53668 69.5106 1.80698L70.4894 0.356347ZM94.5872 27.8957L93.7854 28.2459L94.5872 27.8957ZM70 1.08167C69.5106 1.80698 69.5105 1.80694 69.5105 1.80694C69.5106 1.807 69.5107 1.80705 69.5109 1.80718C69.5112 1.80743 69.5119 1.80787 69.5128 1.80849C69.5147 1.80974 69.5176 1.81174 69.5216 1.81448C69.5297 1.81995 69.5421 1.82839 69.5587 1.83975C69.5919 1.86246 69.642 1.89688 69.7081 1.94267C69.8402 2.03426 70.0361 2.17137 70.2885 2.35153C70.7933 2.71186 71.5237 3.24421 72.4209 3.92876C74.2159 5.29834 76.6753 7.27471 79.33 9.69947C84.6582 14.5661 90.6952 21.1694 93.7854 28.2459L95.3891 27.5455C92.1499 20.1279 85.8933 13.3242 80.5102 8.40734C77.8093 5.94035 75.3086 3.93085 73.4825 2.53749C72.5691 1.84058 71.8236 1.2972 71.3052 0.927168C71.046 0.742138 70.8435 0.600407 70.7051 0.504454C70.6359 0.456476 70.5827 0.419939 70.5464 0.395152C70.5283 0.382759 70.5144 0.373303 70.5049 0.366822C70.5001 0.363582 70.4964 0.361086 70.4939 0.359338C70.4926 0.358465 70.4915 0.357778 70.4908 0.357279C70.4904 0.35703 70.4901 0.356797 70.4899 0.356672C70.4896 0.356486 70.4894 0.356347 70 1.08167ZM93.7854 28.2459C96.8905 35.3565 98.4643 45.4432 99.2543 53.8256C99.648 58.0023 99.8449 61.7294 99.9433 64.4121C99.9925 65.7531 100.017 66.8324 100.029 67.5754C100.036 67.9469 100.039 68.2343 100.04 68.4283C100.041 68.5253 100.041 68.5989 100.041 68.648C100.042 68.6726 100.042 68.691 100.042 68.7032C100.042 68.7093 100.042 68.7138 100.042 68.7167C100.042 68.7181 100.042 68.7192 100.042 68.7199C100.042 68.7202 100.042 68.7204 100.042 68.7206C100.042 68.7207 100.042 68.7207 100.917 68.7207C101.792 68.7207 101.792 68.7205 101.792 68.7202C101.792 68.7199 101.792 68.7195 101.792 68.719C101.792 68.7181 101.792 68.7168 101.792 68.715C101.792 68.7116 101.792 68.7065 101.792 68.6999C101.792 68.6866 101.792 68.667 101.791 68.6413C101.791 68.5899 101.791 68.5139 101.79 68.4145C101.789 68.2157 101.785 67.9233 101.779 67.5465C101.767 66.793 101.742 65.7019 101.692 64.3479C101.593 61.6406 101.394 57.8791 100.997 53.6614C100.204 45.2547 98.6134 34.929 95.3891 27.5455L93.7854 28.2459Z" fill="#0B0B0B"/>
        <line x1="54.3911" y1="0.946808" x2="54.3911" y2="44.4996" stroke="#0B0B0B" stroke-width="1.75"/>
        <line x1="64.8105" y1="0.946808" x2="64.8105" y2="44.4996" stroke="#0B0B0B" stroke-width="1.75"/>
        <line x1="59.6006" y1="0.946808" x2="59.6006" y2="44.4996" stroke="#0B0B0B" stroke-width="1.75"/>
    </g>
    <g clip-path="url(#clip1)">
        <path d="M127.755 132.886C127.755 111.112 145.406 93.4606 167.18 93.4606C188.954 93.4606 206.605 111.112 206.605 132.886V196.959H127.755V132.886Z" fill="white" stroke="#0B0B0B" stroke-width="1.50273"/>
        <ellipse cx="131.985" cy="139.436" rx="14.1282" ry="13.7161" fill="white"/>
        <ellipse cx="160.669" cy="139.436" rx="14.1282" ry="13.7161" fill="white"/>
        <mask id="path-24-outside-2" maskUnits="userSpaceOnUse" x="116.691" y="123.863" width="60" height="31" fill="black">
            <rect fill="white" x="116.691" y="123.863" width="60" height="31"/>
            <path fill-rule="evenodd" clip-rule="evenodd" d="M132.24 152.875C124.775 152.875 118.746 146.887 118.746 139.528C118.746 132.169 124.775 126.181 132.24 126.181C139.706 126.181 145.735 132.169 145.735 139.528C145.735 146.887 139.706 152.875 132.24 152.875ZM132.24 154.193C124.06 154.193 117.428 147.627 117.428 139.528C117.428 131.429 124.06 124.863 132.24 124.863C139.106 124.863 144.88 129.486 146.56 135.76C148.24 129.487 154.014 124.864 160.879 124.864C169.06 124.864 175.691 131.429 175.691 139.529C175.691 147.628 169.06 154.194 160.879 154.194C154.014 154.194 148.239 149.57 146.559 143.297C144.879 149.57 139.105 154.193 132.24 154.193ZM160.879 152.876C153.413 152.876 147.384 146.888 147.384 139.529C147.384 132.17 153.413 126.181 160.879 126.181C168.344 126.181 174.373 132.17 174.373 139.529C174.373 146.888 168.344 152.876 160.879 152.876ZM165.615 132.174C162.814 132.174 163.143 133.731 163.629 136.028C163.852 137.081 164.107 138.29 164.109 139.576C164.107 140.862 163.852 142.071 163.629 143.124C163.143 145.421 162.814 146.978 165.615 146.978C169.697 146.978 173.008 143.672 173.021 139.589H173.021L173.021 139.576L173.021 139.563H173.021C173.008 135.48 169.697 132.174 165.615 132.174ZM136.955 146.978C134.154 146.978 134.483 145.421 134.969 143.124C135.192 142.071 135.447 140.862 135.449 139.576C135.447 138.29 135.192 137.081 134.969 136.028C134.483 133.731 134.154 132.174 136.955 132.174C141.037 132.174 144.348 135.48 144.361 139.563H144.361C144.361 139.568 144.361 139.572 144.361 139.576C144.361 139.58 144.361 139.585 144.361 139.589H144.361C144.348 143.672 141.037 146.978 136.955 146.978Z"/>
        </mask>
        <path fill-rule="evenodd" clip-rule="evenodd" d="M132.24 152.875C124.775 152.875 118.746 146.887 118.746 139.528C118.746 132.169 124.775 126.181 132.24 126.181C139.706 126.181 145.735 132.169 145.735 139.528C145.735 146.887 139.706 152.875 132.24 152.875ZM132.24 154.193C124.06 154.193 117.428 147.627 117.428 139.528C117.428 131.429 124.06 124.863 132.24 124.863C139.106 124.863 144.88 129.486 146.56 135.76C148.24 129.487 154.014 124.864 160.879 124.864C169.06 124.864 175.691 131.429 175.691 139.529C175.691 147.628 169.06 154.194 160.879 154.194C154.014 154.194 148.239 149.57 146.559 143.297C144.879 149.57 139.105 154.193 132.24 154.193ZM160.879 152.876C153.413 152.876 147.384 146.888 147.384 139.529C147.384 132.17 153.413 126.181 160.879 126.181C168.344 126.181 174.373 132.17 174.373 139.529C174.373 146.888 168.344 152.876 160.879 152.876ZM165.615 132.174C162.814 132.174 163.143 133.731 163.629 136.028C163.852 137.081 164.107 138.29 164.109 139.576C164.107 140.862 163.852 142.071 163.629 143.124C163.143 145.421 162.814 146.978 165.615 146.978C169.697 146.978 173.008 143.672 173.021 139.589H173.021L173.021 139.576L173.021 139.563H173.021C173.008 135.48 169.697 132.174 165.615 132.174ZM136.955 146.978C134.154 146.978 134.483 145.421 134.969 143.124C135.192 142.071 135.447 140.862 135.449 139.576C135.447 138.29 135.192 137.081 134.969 136.028C134.483 133.731 134.154 132.174 136.955 132.174C141.037 132.174 144.348 135.48 144.361 139.563H144.361C144.361 139.568 144.361 139.572 144.361 139.576C144.361 139.58 144.361 139.585 144.361 139.589H144.361C144.348 143.672 141.037 146.978 136.955 146.978Z" fill="#0B0B0B"/>
        <path d="M146.56 135.76L146.681 135.792L146.56 136.244L146.439 135.792L146.56 135.76ZM146.559 143.297L146.438 143.264L146.559 142.813L146.68 143.264L146.559 143.297ZM163.629 136.028L163.751 136.002L163.629 136.028ZM164.109 139.576L164.234 139.576L164.234 139.576L164.109 139.576ZM163.629 143.124L163.751 143.15L163.629 143.124ZM173.021 139.589L172.896 139.588L172.897 139.464H173.021V139.589ZM173.021 139.589L173.147 139.589L173.147 139.714H173.021V139.589ZM173.021 139.576L172.896 139.576L172.896 139.576L173.021 139.576ZM173.021 139.563V139.438H173.147L173.147 139.563L173.021 139.563ZM173.021 139.563V139.689H172.897L172.896 139.564L173.021 139.563ZM134.969 143.124L135.091 143.15L134.969 143.124ZM135.449 139.576L135.574 139.576V139.576L135.449 139.576ZM134.969 136.028L134.846 136.054L134.969 136.028ZM144.361 139.563V139.689H144.236L144.236 139.564L144.361 139.563ZM144.361 139.563V139.438H144.487V139.563H144.361ZM144.361 139.576L144.236 139.576V139.576L144.361 139.576ZM144.361 139.589H144.487V139.714H144.361V139.589ZM144.361 139.589L144.236 139.588L144.236 139.464H144.361V139.589ZM118.871 139.528C118.871 146.817 124.843 152.75 132.24 152.75V153C124.707 153 118.62 146.957 118.62 139.528H118.871ZM132.24 126.306C124.843 126.306 118.871 132.239 118.871 139.528H118.62C118.62 132.099 124.707 126.055 132.24 126.055V126.306ZM145.61 139.528C145.61 132.239 139.638 126.306 132.24 126.306V126.055C139.774 126.055 145.86 132.099 145.86 139.528H145.61ZM132.24 152.75C139.638 152.75 145.61 146.817 145.61 139.528H145.86C145.86 146.957 139.774 153 132.24 153V152.75ZM117.553 139.528C117.553 147.557 124.128 154.068 132.24 154.068V154.318C123.992 154.318 117.302 147.698 117.302 139.528H117.553ZM132.24 124.988C124.128 124.988 117.553 131.499 117.553 139.528H117.302C117.302 131.358 123.992 124.737 132.24 124.737V124.988ZM146.439 135.792C144.773 129.573 139.048 124.988 132.24 124.988V124.737C139.163 124.737 144.986 129.4 146.681 135.727L146.439 135.792ZM160.879 124.989C154.071 124.989 148.346 129.573 146.681 135.792L146.439 135.727C148.133 129.4 153.957 124.738 160.879 124.738V124.989ZM175.566 139.529C175.566 131.5 168.992 124.989 160.879 124.989V124.738C169.127 124.738 175.817 131.359 175.817 139.529H175.566ZM160.879 154.069C168.992 154.069 175.566 147.558 175.566 139.529H175.817C175.817 147.698 169.127 154.319 160.879 154.319V154.069ZM146.68 143.264C148.346 149.484 154.071 154.069 160.879 154.069V154.319C153.956 154.319 148.133 149.657 146.438 143.329L146.68 143.264ZM132.24 154.068C139.048 154.068 144.773 149.483 146.438 143.264L146.68 143.329C144.986 149.656 139.163 154.318 132.24 154.318V154.068ZM147.509 139.529C147.509 146.818 153.481 152.751 160.879 152.751V153.001C153.345 153.001 147.259 146.958 147.259 139.529H147.509ZM160.879 126.307C153.481 126.307 147.509 132.24 147.509 139.529H147.259C147.259 132.099 153.345 126.056 160.879 126.056V126.307ZM174.248 139.529C174.248 132.24 168.276 126.307 160.879 126.307V126.056C168.412 126.056 174.499 132.099 174.499 139.529H174.248ZM160.879 152.751C168.276 152.751 174.248 146.818 174.248 139.529H174.499C174.499 146.958 168.412 153.001 160.879 153.001V152.751ZM163.506 136.054C163.385 135.481 163.272 134.947 163.216 134.471C163.16 133.996 163.158 133.566 163.27 133.203C163.383 132.833 163.611 132.539 163.998 132.341C164.378 132.147 164.906 132.049 165.615 132.049V132.299C164.924 132.299 164.442 132.395 164.112 132.564C163.787 132.73 163.603 132.969 163.509 133.276C163.413 133.589 163.41 133.979 163.465 134.442C163.519 134.904 163.63 135.426 163.751 136.002L163.506 136.054ZM163.984 139.576C163.982 138.305 163.729 137.108 163.506 136.054L163.751 136.002C163.974 137.054 164.233 138.275 164.234 139.576L163.984 139.576ZM163.506 143.099C163.729 142.044 163.982 140.847 163.984 139.576L164.234 139.576C164.233 140.877 163.974 142.098 163.751 143.15L163.506 143.099ZM165.615 147.104C164.906 147.104 164.378 147.005 163.998 146.811C163.611 146.613 163.383 146.319 163.27 145.949C163.158 145.586 163.16 145.156 163.216 144.681C163.272 144.205 163.385 143.671 163.506 143.099L163.751 143.15C163.63 143.726 163.519 144.248 163.465 144.71C163.41 145.173 163.413 145.563 163.509 145.876C163.603 146.183 163.787 146.422 164.112 146.588C164.442 146.757 164.924 146.853 165.615 146.853V147.104ZM173.147 139.589C173.133 143.742 169.766 147.104 165.615 147.104V146.853C169.628 146.853 172.883 143.603 172.896 139.588L173.147 139.589ZM173.021 139.714H173.021V139.464H173.021V139.714ZM173.147 139.576L173.147 139.589L172.896 139.589L172.896 139.576L173.147 139.576ZM173.147 139.563L173.147 139.576L172.896 139.576L172.896 139.563L173.147 139.563ZM173.021 139.438H173.021V139.689H173.021V139.438ZM165.615 132.049C169.766 132.049 173.133 135.411 173.147 139.563L172.896 139.564C172.883 135.549 169.628 132.299 165.615 132.299V132.049ZM135.091 143.15C134.969 143.726 134.859 144.248 134.805 144.71C134.75 145.173 134.753 145.563 134.849 145.876C134.943 146.183 135.127 146.422 135.451 146.588C135.782 146.757 136.264 146.853 136.955 146.853V147.104C136.245 147.104 135.718 147.005 135.337 146.811C134.951 146.613 134.723 146.319 134.609 145.949C134.498 145.586 134.5 145.156 134.556 144.681C134.612 144.205 134.725 143.671 134.846 143.099L135.091 143.15ZM135.574 139.576C135.573 140.877 135.314 142.098 135.091 143.15L134.846 143.099C135.069 142.044 135.322 140.847 135.324 139.576L135.574 139.576ZM135.091 136.002C135.314 137.054 135.573 138.275 135.574 139.576L135.324 139.576C135.322 138.305 135.069 137.108 134.846 136.054L135.091 136.002ZM136.955 132.299C136.264 132.299 135.782 132.395 135.451 132.564C135.127 132.73 134.943 132.969 134.849 133.276C134.753 133.589 134.75 133.979 134.805 134.442C134.859 134.904 134.969 135.426 135.091 136.002L134.846 136.054C134.725 135.481 134.612 134.947 134.556 134.471C134.5 133.996 134.498 133.566 134.609 133.203C134.723 132.833 134.951 132.539 135.337 132.341C135.718 132.147 136.245 132.049 136.955 132.049V132.299ZM144.236 139.564C144.223 135.549 140.968 132.299 136.955 132.299V132.049C141.106 132.049 144.473 135.411 144.486 139.563L144.236 139.564ZM144.361 139.689H144.361V139.438H144.361V139.689ZM144.236 139.576C144.236 139.572 144.236 139.567 144.236 139.563H144.487C144.487 139.568 144.486 139.572 144.486 139.576L144.236 139.576ZM144.236 139.589C144.236 139.585 144.236 139.58 144.236 139.576L144.486 139.576C144.486 139.58 144.487 139.584 144.487 139.589H144.236ZM144.361 139.464H144.361V139.714H144.361V139.464ZM136.955 146.853C140.968 146.853 144.223 143.603 144.236 139.588L144.486 139.589C144.473 143.742 141.106 147.104 136.955 147.104V146.853Z" fill="black" mask="url(#path-24-outside-2)"/>
        <path d="M127.599 151.866C127.599 147.547 131.1 144.045 135.42 144.045H145.79V159.687H135.42C131.1 159.687 127.599 156.186 127.599 151.866Z" fill="white" stroke="#0B0B0B" stroke-width="1.50273"/>
        <path d="M179.771 120.099C179.796 119.378 179.232 118.772 178.511 118.747L155.262 117.927C153.684 117.872 152.329 118.948 151.979 120.428L178.419 121.36C179.14 121.385 179.746 120.821 179.771 120.099Z" fill="#0B0B0B" stroke="#0B0B0B" stroke-width="1.28563"/>
        <path d="M117.711 120.099C117.686 119.378 118.25 118.772 118.971 118.747L142.22 117.928C143.798 117.873 145.153 118.949 145.504 120.429L119.063 121.36C118.342 121.385 117.736 120.821 117.711 120.099Z" fill="#0B0B0B" stroke="#0B0B0B" stroke-width="1.28563"/>
        <path d="M185.724 109.491H132.776C127.541 109.491 124.085 104.133 127.065 99.8295C133.085 91.1359 143.222 82.0026 158.819 82.0026C187.811 82.0027 197.088 81.5731 205.438 91.6665C213.118 100.95 219.264 145.906 216.514 165.676C216.411 166.42 215.968 167.054 215.324 167.442L195.472 179.418C191.188 182.003 185.724 178.917 185.724 173.914V109.491Z" fill="#0B0B0B" stroke="#0B0B0B" stroke-width="0.428542"/>
        <ellipse cx="157.03" cy="96.7876" rx="0.642191" ry="0.214271" fill="#0B0B0B"/>
        <ellipse cx="160.883" cy="97.6449" rx="0.642191" ry="0.214271" fill="#0B0B0B"/>
        <ellipse cx="158.742" cy="95.073" rx="0.642191" ry="0.214271" fill="#0B0B0B"/>
        <ellipse cx="157.458" cy="99.3594" rx="0.642192" ry="0.214271" fill="#0B0B0B"/>
        <ellipse cx="166.449" cy="95.5017" rx="0.642191" ry="0.214271" fill="#0B0B0B"/>
        <ellipse cx="163.88" cy="94.2159" rx="0.642191" ry="0.214271" fill="#0B0B0B"/>
        <ellipse cx="168.589" cy="98.9308" rx="0.642191" ry="0.214271" fill="#0B0B0B"/>
        <ellipse cx="172.871" cy="98.5022" rx="0.642192" ry="0.214271" fill="#0B0B0B"/>
        <ellipse cx="172.442" cy="95.9304" rx="0.642192" ry="0.214271" fill="#0B0B0B"/>
        <ellipse cx="175.439" cy="95.073" rx="0.642192" ry="0.214271" fill="#0B0B0B"/>
        <ellipse cx="169.017" cy="94.6445" rx="0.642191" ry="0.214271" fill="#0B0B0B"/>
        <ellipse cx="175.867" cy="97.2162" rx="0.642192" ry="0.214271" fill="#0B0B0B"/>
        <ellipse cx="175.867" cy="99.3594" rx="0.642192" ry="0.214271" fill="#0B0B0B"/>
        <ellipse cx="180.577" cy="101.074" rx="0.642192" ry="0.214271" fill="#0B0B0B"/>
        <ellipse cx="183.146" cy="99.3594" rx="0.642192" ry="0.214271" fill="#0B0B0B"/>
        <ellipse cx="182.717" cy="97.6449" rx="0.642192" ry="0.214271" fill="#0B0B0B"/>
        <ellipse cx="184.858" cy="101.502" rx="0.642195" ry="0.214271" fill="#0B0B0B"/>
        <ellipse cx="186.999" cy="99.788" rx="0.642192" ry="0.214271" fill="#0B0B0B"/>
        <ellipse cx="179.293" cy="98.5022" rx="0.642192" ry="0.214271" fill="#0B0B0B"/>
        <ellipse cx="178.864" cy="96.3589" rx="0.642192" ry="0.214271" fill="#0B0B0B"/>
        <ellipse cx="169.446" cy="96.7876" rx="0.642189" ry="0.214271" fill="#0B0B0B"/>
        <ellipse cx="165.592" cy="98.0735" rx="0.642191" ry="0.214271" fill="#0B0B0B"/>
        <ellipse cx="163.024" cy="99.3594" rx="0.642192" ry="0.214271" fill="#0B0B0B"/>
        <ellipse cx="162.168" cy="95.9304" rx="0.642189" ry="0.214271" fill="#0B0B0B"/>
        <ellipse cx="152.749" cy="98.9308" rx="0.642191" ry="0.214271" fill="#0B0B0B"/>
        <path d="M182.981 179.021L176.022 180.225C174.22 180.537 172.377 180.537 170.575 180.225L163.616 179.021C159.97 178.39 157.306 175.223 157.306 171.518C157.306 165.833 163.413 162.164 168.496 164.803C171.491 166.357 175.107 166.357 178.101 164.803C183.184 162.164 189.291 165.833 189.291 171.518C189.291 175.223 186.627 178.39 182.981 179.021ZM169.145 163.55C163.145 160.435 155.897 164.75 155.897 171.518C155.897 175.909 159.054 179.663 163.376 180.411L170.335 181.615C172.296 181.955 174.301 181.955 176.262 181.615L183.221 180.411C187.543 179.663 190.7 175.909 190.7 171.518C190.7 164.75 183.452 160.435 177.452 163.55C174.865 164.893 171.733 164.893 169.145 163.55Z" fill="#0B0B0B" stroke="black" stroke-width="0.125227"/>
        <path d="M164.308 170.706C164.308 170.706 167.947 173.278 173.727 173.278C179.507 173.278 183.146 170.706 183.146 170.706" stroke="#0B0B0B" stroke-width="1.50273" stroke-linecap="round"/>
        <path d="M199.378 107.748C200.445 108.686 200.897 110.321 200.552 112.392C200.21 114.448 199.092 116.793 197.239 118.9C195.386 121.008 193.203 122.417 191.208 123.02C189.198 123.627 187.519 123.387 186.452 122.449C185.385 121.511 184.933 119.876 185.277 117.805C185.62 115.749 186.738 113.404 188.591 111.297C190.444 109.189 192.627 107.78 194.622 107.177C196.632 106.57 198.311 106.81 199.378 107.748Z" fill="#00B15C" stroke="black" stroke-width="1.72727"/>
        <path d="M187.287 97.96C188.354 98.8983 188.807 100.533 188.462 102.604C188.119 104.66 187.001 107.005 185.148 109.112C183.295 111.22 181.112 112.629 179.117 113.232C177.108 113.839 175.428 113.599 174.361 112.661C173.294 111.723 172.842 110.088 173.187 108.017C173.529 105.961 174.647 103.616 176.5 101.509C178.353 99.4014 180.536 97.9923 182.531 97.3896C184.541 96.7824 186.22 97.0218 187.287 97.96Z" fill="#00B15C" stroke="black" stroke-width="1.72727"/>
        <circle cx="186.667" cy="110.212" r="4.31818" fill="#00B15C" stroke="black" stroke-width="1.72727"/>
    </g>
    <defs>
        <clipPath id="clip0">
            <rect width="105" height="196" fill="white"/>
        </clipPath>
        <clipPath id="clip1">
            <rect width="100.182" height="114" fill="white" transform="translate(117 82)"/>
        </clipPath>
    </defs>
</svg>
