<svg width="102" height="32" viewBox="0 0 102 32" fill="none" xmlns="http://www.w3.org/2000/svg">
    <path fill-rule="evenodd" clip-rule="evenodd" d="M98.1667 6.44264C99.7663 6.44264 101.063 5.14591 101.063 3.54632C101.063 1.94673 99.7663 0.65001 98.1667 0.65001C96.5671 0.65001 95.2704 1.94673 95.2704 3.54632C95.2704 5.14591 96.5671 6.44264 98.1667 6.44264ZM98.1667 7.09283C100.125 7.09283 101.713 5.505 101.713 3.54632C101.713 1.58764 100.125 -0.000183105 98.1667 -0.000183105C96.208 -0.000183105 94.6202 1.58764 94.6202 3.54632C94.6202 5.505 96.208 7.09283 98.1667 7.09283ZM97.5382 5.31954V3.99336H98.3329L99.1426 5.31954H99.8628L98.9737 3.89402C99.376 3.76488 99.7287 3.43706 99.7287 2.88573C99.7287 2.16055 99.2419 1.77313 98.4124 1.77313H96.8925V5.31954H97.5382ZM97.5382 3.4768V2.29466H98.3379C98.8296 2.29466 99.078 2.4983 99.078 2.88573C99.078 3.27315 98.8296 3.4768 98.3379 3.4768H97.5382ZM80.4421 31.5087H71.3504L68.3526 22.4662H68.156V31.5087H60.1454V0.00717935H68.2543V17.3552H68.4508L72.0997 7.40183H80.4421L75.6751 19.7141L80.4421 31.5087ZM22.7047 15.586C22.7047 26.2011 18.5111 31.5087 10.1237 31.5087H0V0.990066H10.3203C14.8088 0.990066 17.9868 2.25144 19.8543 4.77419C21.7546 7.26417 22.7047 10.8681 22.7047 15.586ZM9.97631 24.4319C11.7127 24.4319 12.8267 23.8258 13.3181 22.6136C13.8423 21.3686 14.1044 19.3045 14.1044 16.4214C14.1044 13.5055 13.826 11.4414 13.269 10.2292C12.7448 9.01699 11.5981 8.41087 9.82888 8.41087H8.35455V24.4319H9.97631ZM23.8039 19.6649C23.8039 15.3402 24.623 12.2114 26.2612 10.2784C27.9321 8.34534 30.5203 7.37884 34.026 7.37884C37.5644 7.37884 40.1363 8.32896 41.7416 10.2292C43.347 12.1295 44.1497 15.2583 44.1497 19.6158C44.1497 23.9405 43.3634 27.0857 41.7908 29.0515C40.2182 31.0173 37.6463 32.0002 34.0751 32.0002C30.504 32.0002 27.8993 31.0173 26.2612 29.0515C24.623 27.0857 23.8039 23.9569 23.8039 19.6649ZM35.5986 14.9962C35.402 14.341 34.8778 14.0133 34.026 14.0133C33.1741 14.0133 32.6335 14.341 32.4042 14.9962C32.1749 15.6515 32.0602 17.0275 32.0602 19.1243V20.3038C32.0602 22.63 32.1749 24.1371 32.4042 24.8251C32.6335 25.5131 33.1577 25.8571 33.9768 25.8571C34.8287 25.8571 35.3692 25.5131 35.5986 24.8251C35.8279 24.1371 35.9426 22.7283 35.9426 20.5987V19.1735C35.9426 17.0439 35.8279 15.6515 35.5986 14.9962ZM53.8807 31.5087V18.2889C53.8807 17.0439 54.0773 16.2248 54.4704 15.8317C54.8963 15.4385 55.7482 15.2419 57.0259 15.2419H59.2866V7.40183C57.5501 7.40183 56.6328 7.50989 55.8465 7.77199C55.0929 8.00134 54.3394 8.54192 53.5858 9.39376H53.3892L52.4352 7.40183H45.7227V31.5087H53.8807ZM81.7878 9.39376C80.3462 10.7043 79.6254 12.5554 79.6254 14.9471C79.6254 17.306 80.2971 19.1243 81.6404 20.4021C82.9836 21.6471 85.1132 22.8266 88.0291 23.9405C88.7499 24.2026 89.1103 24.563 89.1103 25.0217C89.1103 25.4804 88.6189 25.7097 87.636 25.7097C86.6858 25.7097 84.5726 25.2674 81.2963 24.3828V30.8648C83.8519 31.52 85.8668 32.0002 88.4223 32.0002C91.0106 32.0002 92.9272 31.3777 94.1722 30.1327C95.4172 28.8549 96.0397 27.0038 96.0397 24.5794C96.0397 22.1549 95.368 20.3366 94.0247 19.1243C92.7142 17.9121 90.7485 16.8309 88.1274 15.8808C87.3739 15.586 86.9971 15.2583 86.9971 14.8979C86.9971 14.341 87.3411 14.0625 88.0291 14.0625C89.1758 14.0625 91.4201 14.4393 94.7619 15.1928V8.50312L94.4163 8.41659C91.9829 7.80696 90.2741 7.37884 87.8326 7.37884C85.277 7.37884 83.2621 8.05048 81.7878 9.39376Z" fill="#00B15C"/>
</svg>
